<svg width="306" height="196" viewBox="0 0 306 196" fill="none" xmlns="http://www.w3.org/2000/svg">
<path d="M284.143 192.447H11.752C11.752 192.447 -22.1509 120.049 25.2105 95.1921C72.5719 70.3354 85.5084 76.9012 84.421 37.4126C83.3335 -2.07603 117.858 -5.53825 137.237 6.89339C156.616 19.325 162.477 30.0988 192.624 11.0861C222.771 -7.92659 265.837 -5.0024 264.76 55.7035C263.684 116.409 279.293 114.207 291.675 123.723C304.057 133.239 319.673 166.121 284.143 192.447Z" fill="url(#paint0_linear_41117_368393)"/>
<path d="M119.77 83.9552C92.5117 82.5095 87.6311 89.1234 87.6311 89.1234L144.503 120.067L153.745 91.7502L119.77 83.9552Z" fill="#9388CD"/>
<path d="M158.991 126.399L164.383 96.3277C164.383 96.3277 149.695 88.699 132.485 86.5774C131.1 86.4069 129.638 86.1772 128.122 85.9038L120.308 116.226L158.991 126.399Z" fill="#A5D2E7"/>
<path d="M135.803 180.033H230.45C230.45 180.033 225.013 124.143 200.741 99.3674C172.305 70.3443 143.868 98.3001 143.868 98.3001C143.868 98.3001 160.561 136.498 135.803 180.033Z" fill="#A5D2E7"/>
<path d="M170.644 95.9164C170.644 95.9164 160.131 130.375 148.995 122.538L146.522 104.002" fill="#79B9D3"/>
<path d="M147.276 105.267L158.303 105.343C158.303 105.343 173.43 101.612 169.395 92.3232C165.361 83.0344 148.642 85.9696 148.642 85.9696" fill="#9388CD"/>
<path d="M162.795 103.171C163.162 102.673 156.55 84.0559 155.213 80.6068C153.875 77.1577 143.753 76.5759 143.753 76.5759L91.3154 70.382C88.5649 70.4238 85.9414 71.5524 84.0118 73.5238C82.0822 75.4953 81.0016 78.1511 81.0036 80.9173C81.0056 83.6835 82.09 86.3377 84.0225 88.3063C85.9549 90.2749 88.5801 91.3997 91.3306 91.4375L142.429 87.4897C146.815 86.5558 149.369 95.2125 150.237 97.7692C151.104 100.326 155.058 99.4293 155.058 99.4293C155.058 99.4293 155.515 99.8995 157.016 103.366C158.517 106.833 162.427 103.67 162.795 103.171Z" fill="#B1AADC"/>
<path d="M164.023 87.2032C162.842 99.777 154.821 102.894 145.61 102.019C136.399 101.144 122.162 95.4574 123.343 82.8902C124.524 70.3229 138.877 60.4196 148.087 61.2944C157.298 62.1693 165.209 74.6316 164.023 87.2032Z" fill="#1B1439"/>
<path d="M131.028 99.9015C131.028 99.9015 146.489 115.572 152.275 115.264C158.06 114.955 163.704 104.766 161.894 94.5277C161.894 94.5277 166.275 93.0951 164.876 87.3451C162.484 77.5424 156.335 85.6414 156.335 85.6414L149.593 80.3551C149.593 80.3551 118.385 89.2676 131.028 99.9015Z" fill="#B1AADC"/>
<path d="M143.227 89.4363C143.227 89.4363 123.122 110.925 104.609 80.3751C104.609 80.3751 117.306 78.7741 122.504 67.3573C129.007 53.0775 161.307 51.8855 159.374 73.2122" fill="#1B1439"/>
<path d="M146.202 107.477C146.202 107.477 154.053 103.635 156.6 106.944L148.642 110.677" fill="white"/>
<path d="M229.315 139.849L205.825 145.997L217.178 169.257L189.122 170.075L165.11 169.839C165.11 169.839 148 177.184 146.956 178.024C145.912 178.863 145.079 184.318 145.079 184.318C145.079 184.318 143.827 184.537 147.165 184.738C150.504 184.939 162.39 185.788 162.39 185.788C162.39 185.788 175.709 183.802 177.795 183.601C179.265 183.452 243.573 185.274 247.33 182.035C249.855 179.874 237.806 158.186 229.315 139.849Z" fill="#B1AADC"/>
<path d="M209.045 152.163C209.045 152.163 206.028 146.33 206.028 145.91C206.028 136.927 220.117 133.393 229.082 139.705L231.494 144.464L209.045 152.163Z" fill="#79B9D3"/>
<path d="M76.2869 180.145C76.2869 182.41 78.0268 184.108 80.5106 184.108H163.913C166.392 184.108 168.532 182.41 168.532 180.145V179.908C168.532 177.642 166.392 175.864 163.913 175.864H80.5063C78.0247 175.864 76.2825 177.642 76.2825 179.908L76.2869 180.145Z" fill="#EF5E4E"/>
<path d="M72.6212 167.783C73.8044 173.38 79.2744 178.153 84.84 178.153H135.227C140.792 178.153 144.346 173.38 143.161 167.783L135.177 130.165C133.996 124.568 128.524 120.189 122.958 120.189H72.5712C67.0077 120.189 63.4539 124.563 64.6371 130.165L72.6212 167.783Z" fill="white"/>
<path d="M67.7739 167.783C68.957 173.38 74.4292 178.153 79.9948 178.153H130.379C135.947 178.153 139.499 173.38 138.316 167.783L130.332 130.165C129.148 124.568 123.678 120.189 118.113 120.189H67.726C62.1603 120.189 58.6087 124.563 59.7918 130.165L67.7739 167.783Z" fill="#F29892"/>
<path d="M89.8969 148.753C89.8973 150.176 90.3173 151.567 91.1037 152.749C91.8901 153.932 93.0075 154.854 94.3148 155.398C95.6221 155.942 97.0604 156.084 98.448 155.806C99.8355 155.528 101.11 154.842 102.11 153.836C103.11 152.83 103.791 151.548 104.067 150.152C104.342 148.757 104.2 147.31 103.658 145.996C103.116 144.682 102.199 143.559 101.023 142.769C99.8461 141.979 98.4629 141.557 97.0481 141.557C96.1086 141.557 95.1784 141.744 94.3104 142.105C93.4425 142.467 92.654 142.997 91.9899 143.665C91.3258 144.334 90.7991 145.127 90.44 146C90.0809 146.873 89.8963 147.808 89.8969 148.753Z" fill="white"/>
<path d="M191.8 98.7771C175.287 103.412 203.616 148.694 203.616 148.694L229.315 139.849C224.783 129.804 208.312 94.1426 191.8 98.7771Z" fill="#A5D2E7"/>
<path d="M123.461 62.9453C123.896 62.3066 126.997 56.4736 128.411 57.1144C129.825 57.7552 131.878 62.1645 128.846 64.8678" fill="#9388CD"/>
<path d="M110.844 77.2078C110.844 77.2078 117.706 78.4304 120.812 81.6411C123.918 84.8518 130.127 76.2914 131.434 75.0688C132.741 73.8462 134.697 70.1784 132.25 66.9764C129.803 63.7744 120.649 61.6267 119.505 62.5431C118.361 63.4595 106.92 73.6975 110.352 76.6064" fill="#B1AADC"/>
<path d="M263.749 175.915C264.089 170.559 263.997 165.184 263.473 159.842C262.603 151.03 263.52 150.343 268.675 141.689C273.83 133.035 271.924 128.945 275.017 122.256C278.11 115.568 276.757 117.445 283.019 112.266C289.28 107.086 296.395 107.977 298.591 100.963C298.591 100.963 296.399 115.452 294.148 124.487C291.897 133.522 291.495 137.453 286.664 141.464C281.833 145.475 280.372 147.662 279.102 157.729C277.832 167.797 270.369 176.289 267.818 177.737C265.267 179.185 263.749 175.915 263.749 175.915Z" fill="#FADCDB"/>
<path d="M265.593 174.218L273.122 149.68C273.122 149.68 276.202 137.599 274.838 134.712C273.475 131.825 266.574 122.604 265.469 118.466C264.364 114.328 264.74 109.19 265.003 103.053C265.267 96.9159 259.131 82.308 258.887 80.3068C258.644 78.3056 257.609 94.709 254.172 100.527C250.736 106.345 246.671 107.152 247.976 113.601C249.281 120.051 244.524 125.937 243.578 130.633C242.632 135.328 241.118 144.471 245.577 156.132C250.035 167.794 254.422 181.173 259.279 182.815C264.136 184.458 265.458 176.47 265.593 174.218Z" fill="#EF5E4E"/>
<path d="M254.349 178.605C254.349 178.605 259.488 169.822 257.024 164.746C254.56 159.669 249.331 160.667 249.025 151.131C248.718 141.595 251.245 140.241 248.737 135.499C246.23 130.758 237.969 123.516 226.988 125.132C215.952 126.759 209.243 143.791 209.243 143.791C209.243 143.791 218.573 132.485 223.567 136.204C228.561 139.922 228.091 140.538 227.991 144.254C227.891 147.97 233.778 153.843 237.321 156.69C240.864 159.538 237.926 161.585 238.454 169.452C238.983 177.319 247.693 181.455 254.349 178.605Z" fill="#FADCDB"/>
<path d="M260.329 175.268C260.329 175.219 260.26 170.508 259.44 166.263C258.89 163.42 258.287 156.489 257.7 149.783C257.385 146.155 257.047 142.404 256.743 139.353C256.345 135.468 256.045 133.229 255.753 131.088C255.39 128.393 255.049 125.839 254.544 120.386C253.635 110.459 259.905 102.349 259.905 102.349C259.851 102.427 254.598 110.706 255.481 120.299C255.982 125.742 256.323 128.277 256.684 130.959C256.976 133.122 257.278 135.357 257.678 139.254C257.991 142.316 258.318 146.069 258.635 149.7C259.218 156.384 259.82 163.291 260.36 166.082C261.199 170.414 260.329 175.268 260.329 175.268Z" fill="#F29892"/>
<path d="M266.215 172.91C267.466 167.188 276.637 138.662 279.408 134.983C282.055 131.483 288.88 115.544 288.948 115.382C288.948 115.382 282.871 131.954 280.159 135.554C277.583 138.97 266.215 172.91 266.215 172.91Z" fill="#D2412B"/>
<path d="M278.084 177.059H239.37V183.839H278.084V177.059Z" fill="#D2412B"/>
<path d="M283.173 188.32C283.173 189.596 282.669 190.82 281.772 191.723C280.874 192.625 279.657 193.132 278.388 193.132H66.408C65.139 193.132 63.922 192.625 63.0246 191.723C62.1273 190.82 61.6232 189.596 61.6232 188.32C61.626 187.046 62.1314 185.825 63.0285 184.925C63.9255 184.025 65.1409 183.52 66.408 183.52H278.397C279.664 183.52 280.879 184.025 281.776 184.925C282.673 185.825 283.179 187.046 283.182 188.32H283.173Z" fill="#5745A0"/>
<path d="M44.5088 155.839C40.5809 167.067 46.6707 178.222 53.8611 186.638C54.892 188.055 55.9033 189.481 56.8559 190.957C57.8166 192.424 58.6994 193.94 59.5007 195.5C57.4714 194.807 55.4053 194.164 53.3304 193.532C51.2555 192.9 49.1762 192.254 47.1144 191.576C39.4912 189.17 32.0965 185.89 26.2242 179.985C18.1769 171.673 13.6095 158.551 21.2218 148.49C23.6142 145.428 27.0941 143.897 30.7915 143.459C36.4463 143.022 42.7537 146.74 44.0782 152.554C44.3968 153.618 44.5422 154.727 44.5088 155.839Z" fill="#F7F6FB"/>
<path d="M206.166 45.86C206.166 49.4615 205.104 52.982 203.114 55.9763C201.123 58.9707 198.295 61.3044 194.986 62.6823C191.677 64.0602 188.036 64.4205 184.524 63.7177C181.011 63.0148 177.785 61.2803 175.252 58.7335C172.72 56.1866 170.996 52.9419 170.297 49.4096C169.599 45.8772 169.957 42.2159 171.328 38.8886C172.699 35.5613 175.02 32.7174 177.998 30.7165C180.975 28.7157 184.476 27.6478 188.058 27.6478C190.436 27.6478 192.791 28.1188 194.988 29.0341C197.185 29.9494 199.182 31.2909 200.863 32.9821C202.545 34.6733 203.879 36.681 204.789 38.8906C205.699 41.1002 206.167 43.4684 206.166 45.86Z" fill="#F7F7F7"/>
<path d="M170.664 64.3258L172.459 51.0149L185.288 50.0132L184.023 61.7931L170.664 64.3258Z" fill="#F7F7F7"/>
<path d="M190.147 39.4364C187.422 41.3567 183.677 43.592 182.648 47.017C181.798 49.845 183.636 52.4477 185.871 53.9918C187.294 54.9738 190.471 56.5748 191.863 54.7004C193.255 52.826 191.646 49.1998 191.028 47.297" stroke="#352965" stroke-linecap="round" stroke-linejoin="round"/>
<path d="M182.342 48.5985C185.589 45.1209 190.572 38.4764 195.951 38.6077C199.909 38.7039 200.561 43.2881 199.213 46.232C197.81 49.2743 194.115 51.5533 190.859 49.9501C187.512 48.2966 187.133 43.8786 186.798 40.6045" stroke="#352965" stroke-linecap="round" stroke-linejoin="round"/>
<path d="M191.033 45.6059C189.748 43.9699 188.247 41.9009 186.044 41.5575C184.045 41.2448 182.111 42.5286 180.919 44.0443C180.195 44.9673 179.088 46.9444 180.791 47.4519C182.853 48.0686 188.005 44.5692 188.101 44.0071" stroke="#352965" stroke-linecap="round" stroke-linejoin="round"/>
<path d="M185.034 38.4916C188.371 37.8136 190.776 38.5616 192.105 41.9538C192.848 43.9251 193.165 46.0328 193.036 48.1368C192.964 49.4775 192.771 51.5575 191.583 52.4455C189.13 54.2783 187.248 49.0861 187.016 47.4807C186.568 44.4537 188.016 42.669 190.611 41.4398" stroke="#352965" stroke-linecap="round" stroke-linejoin="round"/>
<path d="M193.595 38.6421C195.715 42.3799 197.91 46.8198 196.34 51.194C195.035 54.829 192.157 54.6387 189.197 53.1865" stroke="#352965" stroke-linecap="round" stroke-linejoin="round"/>
<path d="M185.198 34.2527C182.083 37.0676 176.985 41.4528 179.197 46.2338C181.1 50.3435 186.592 49.7726 189.054 46.5991C189.83 45.546 190.41 44.3604 190.766 43.0997C191.396 41.0438 192.182 38.9441 191.183 36.8598C189.48 33.3167 184.735 40.4336 183.83 41.6234" stroke="#352965" stroke-linecap="round" stroke-linejoin="round"/>
<defs>
<linearGradient id="paint0_linear_41117_368393" x1="29.1466" y1="35.6991" x2="234.606" y2="194.282" gradientUnits="userSpaceOnUse">
<stop stop-color="#E3E1F2" stop-opacity="0.2"/>
<stop offset="1" stop-color="#E3E1F2"/>
</linearGradient>
</defs>
</svg>
