<svg viewBox="0 0 185 64" fill="none" xmlns="http://www.w3.org/2000/svg"><rect x="1.254" y="1.403" width="182.495" height="61.871" rx="15.722" stroke="#224722" stroke-width="1.157"></rect><path d="M41.746 20.072h2.388l4.471 12.026H46.37l-1.084-3.168h-4.691l-1.084 3.168H37.29l4.455-12.026Zm.813 3.134-1.39 4.065h3.54l-1.388-4.065a10.76 10.76 0 0 1-.356-1.287h-.034c-.118.474-.237.897-.372 1.287ZM51.54 35.4h-2.033V23.63h1.93v1.473c.526-1.101 1.508-1.677 2.71-1.677 2.033 0 3.405 1.744 3.405 4.42 0 2.727-1.422 4.455-3.506 4.455-1.202 0-2.05-.593-2.506-1.423V35.4Zm1.913-4.657c1.22 0 1.982-1.084 1.982-2.896 0-1.813-.728-2.863-1.965-2.863-1.22 0-1.981.965-1.981 2.676v.424c0 1.625.762 2.659 1.964 2.659ZM60.92 35.4h-2.032V23.63h1.93v1.473c.526-1.101 1.508-1.677 2.71-1.677 2.033 0 3.405 1.744 3.405 4.42 0 2.727-1.423 4.455-3.506 4.455-1.202 0-2.05-.593-2.507-1.423V35.4Zm1.914-4.657c1.22 0 1.982-1.084 1.982-2.896 0-1.813-.728-2.863-1.965-2.863-1.22 0-1.981.965-1.981 2.676v.424c0 1.625.762 2.659 1.964 2.659ZM75.327 32.3c-2.439 0-4.15-1.61-4.15-4.455 0-2.828 1.711-4.42 4.15-4.42s4.15 1.592 4.15 4.42c0 2.846-1.711 4.455-4.15 4.455Zm0-1.541c1.304 0 2.066-.983 2.066-2.914 0-1.93-.762-2.879-2.066-2.879-1.304 0-2.083.949-2.083 2.88 0 1.93.779 2.913 2.083 2.913Zm7.884-8.08v.95h2.05v1.473h-2.05v6.995h-2.033v-6.995h-1.456v-1.474h1.456v-1.084c0-1.761 1.067-2.828 2.88-2.828.423 0 .83.05 1.202.135v1.575a5.503 5.503 0 0 0-.864-.084c-.813 0-1.185.44-1.185 1.338Zm5.607-2.608h9.468v1.779h-3.642v10.247H92.46V21.85h-3.642v-1.779Zm12.414 12.026h-2.033v-12.28h2.033v5.37c.508-1.17 1.439-1.762 2.726-1.762 1.83 0 2.795 1.169 2.795 3.404v5.268h-2.049V27c0-1.288-.525-1.948-1.559-1.948-1.219 0-1.913.931-1.913 2.557v4.489Zm14.528-4.658v.931h-5.945c.017 1.423.914 2.338 2.252 2.338.966 0 1.677-.491 2.067-1.406l1.558.711c-.627 1.474-1.965 2.287-3.692 2.287-2.592 0-4.15-1.575-4.15-4.353 0-2.794 1.524-4.522 4.048-4.522 2.456 0 3.862 1.423 3.862 4.014Zm-5.945-.407h3.946v-.135c0-1.389-.694-2.117-1.897-2.117-1.287 0-2.015.847-2.049 2.253Zm15.408 5.065h-4.302V20.072h4.336c3.523 0 5.827 2.405 5.827 5.962s-2.287 6.064-5.861 6.064Zm-2.117-10.315v8.604h2.05c2.337 0 3.641-1.965 3.641-4.353 0-2.439-1.253-4.251-3.607-4.251h-2.084Zm11.575 10.518c-1.744 0-2.896-1-2.896-2.507 0-.813.356-1.49 1.033-1.914.61-.355 1.423-.575 2.761-.762l1.795-.22v-.22c0-1.27-.491-1.813-1.575-1.813-.999 0-1.592.526-1.66 1.491h-2.083c.135-1.812 1.558-2.93 3.743-2.93 2.507 0 3.624 1.067 3.624 3.523v2.523c0 1.152.085 2.033.255 2.626h-2.033a11.841 11.841 0 0 1-.135-1.457c-.407 1.033-1.474 1.66-2.829 1.66Zm.644-1.44c1.253 0 2.1-.897 2.1-2.235v-.542l-1.914.288c-1.118.186-1.626.592-1.626 1.32 0 .712.542 1.17 1.44 1.17Zm6.095 4.624c-.254 0-.576-.034-.932-.085v-1.609c.305.068.509.068.712.068.999 0 1.524-.406 1.846-1.338l.169-.508-3.302-8.384h2.235l1.846 5.538c.136.39.204.712.237 1h.034c.051-.254.136-.56.254-1l1.694-5.538h2.1l-3.167 8.943c-.762 2.15-1.914 2.913-3.726 2.913ZM73.28 41.299h1.465l2.742 7.375h-1.37l-.666-1.943h-2.877l-.665 1.943h-1.36l2.731-7.375Zm.499 1.922-.852 2.492h2.171l-.852-2.492a6.616 6.616 0 0 1-.218-.79h-.02c-.073.29-.146.55-.23.79Zm5.508 7.478h-1.246V43.48h1.184v.904c.322-.675.925-1.029 1.662-1.029 1.247 0 2.088 1.07 2.088 2.712 0 1.672-.872 2.731-2.15 2.731-.738 0-1.257-.363-1.538-.872v2.773Zm1.174-2.856c.748 0 1.216-.665 1.216-1.776 0-1.112-.447-1.756-1.205-1.756-.748 0-1.216.592-1.216 1.641v.26c0 .997.468 1.63 1.205 1.63Zm4.579 2.856h-1.247V43.48h1.184v.904c.322-.675.925-1.029 1.662-1.029 1.247 0 2.088 1.07 2.088 2.712 0 1.672-.873 2.731-2.15 2.731-.738 0-1.257-.363-1.537-.872v2.773Zm1.173-2.856c.748 0 1.216-.665 1.216-1.776 0-1.112-.447-1.756-1.205-1.756-.748 0-1.216.592-1.216 1.641v.26c0 .997.468 1.63 1.205 1.63Zm8.068 1.007c-1.745 0-2.784-.862-3.085-2.067l1.142-.498c.24.83.842 1.496 1.995 1.496.758 0 1.464-.302 1.464-1.07 0-.717-.436-.966-1.246-1.133l-1.029-.218c-1.163-.239-1.942-.862-1.942-2.119 0-1.277 1.05-2.119 2.711-2.119 1.392 0 2.503.572 2.825 1.797l-1.06.561c-.238-.852-.85-1.34-1.827-1.34-.81 0-1.35.374-1.35.997 0 .603.342.914 1.142 1.091l1.08.229c1.216.26 2.026.82 2.026 2.129 0 1.267-.956 2.264-2.846 2.264Zm3.79-4.466h-.934v-.904h.935v-1.309l1.246-.498v1.807h1.268v.904h-1.268v2.482c0 .551.24.821.759.821.207 0 .342-.031.509-.062v1.049c-.302.062-.53.093-.852.093-1.247 0-1.662-.654-1.662-1.703v-2.68Zm5.3 4.414c-1.496 0-2.545-.986-2.545-2.731 0-1.735 1.049-2.712 2.545-2.712s2.545.977 2.545 2.712c0 1.745-1.049 2.731-2.545 2.731Zm0-.945c.8 0 1.267-.602 1.267-1.786 0-1.185-.467-1.766-1.267-1.766-.8 0-1.278.581-1.278 1.766 0 1.184.478 1.786 1.278 1.786Zm4.523-4.373v1.257c.26-.82.81-1.382 1.651-1.382a.69.69 0 0 1 .146.01v1.195h-.166c-.499 0-.842.136-1.081.364-.415.405-.467.997-.467 1.579v2.17h-1.247V43.48h1.164Zm6.771 2.337v.572h-3.646c.011.872.561 1.433 1.382 1.433.592 0 1.028-.301 1.267-.862l.956.436c-.384.904-1.205 1.402-2.265 1.402-1.589 0-2.544-.965-2.544-2.67 0-1.713.934-2.773 2.482-2.773 1.506 0 2.368.873 2.368 2.462Zm-3.646-.249h2.421v-.083c0-.852-.426-1.298-1.164-1.298-.789 0-1.236.519-1.257 1.381ZM19.138 26.357c1.554-2.468 3.962-2.725 6.58-2.651-.447 1.743-1.563 2.855-3.07 3.61a9.487 9.487 0 0 1-3.48.992c-.282.023-.573.04-.632.426-.25 1.39-.329 2.807-.237 4.217.845-2.75 3.113-3.63 5.631-4.265a5.042 5.042 0 0 1-1.66 3.909 12.617 12.617 0 0 1-3.274 2.164c-.415.187-.554.405-.433.872.31 1.209.553 2.434 1.292 3.742-.16-2.965 1.617-4.423 3.74-5.736.44 1.011.3 1.98.083 2.945-.366 1.631-1.304 2.954-2.43 4.138-.414.434-.405.734-.118 1.227.625 1.09 1.472 1.993 2.357 2.98-1.132-2.619.038-4.663 1.552-6.67.92 1.186 1.459 2.474 1.278 4.015a11.647 11.647 0 0 1-1.047 3.776c-.117.236-.31.512.02.764a33.116 33.116 0 0 0 3.573 2.508c-1.95-2.195-1.568-4.61-.768-7.131 1.582 1.06 2.498 2.472 2.706 4.343.135 1.068.1 2.151-.104 3.208-.113.544.103.783.551.963.806.326 1.636.662 2.443 1.015.317.138.74.281.555.759-.184.477-.56.311-.903.172-.836-.346-1.72-.61-2.5-1.057-.595-.344-.904-.18-1.343.214-1.626 1.46-3.52 1.974-5.642 1.364a6.96 6.96 0 0 1-3.762-2.619c2.796-.44 5.487-1.208 8.276-.243-.75-.532-1.49-1.051-2.225-1.59-.575-.423-1.084-1.068-1.72-1.238-.635-.17-1.242.47-1.9.681-2.113.657-4.727-.13-6.205-1.93a8.59 8.59 0 0 1-1.49-2.513c2.161.05 5.203.885 8.056 2.233-.374-.472-.659-.876-.98-1.23a10.636 10.636 0 0 1-1.728-2.439.658.658 0 0 0-.854-.387c-2.559.505-4.536-.435-6.009-2.503-.907-1.278-1.158-2.774-1.297-4.43 2.484 1.501 5.046 2.682 6.86 4.984-.1-.271-.178-.554-.299-.816a13.44 13.44 0 0 1-.963-3.359c-.05-.29-.094-.549-.48-.596-3.87-.442-5.785-4.348-4.805-8.115.023-.259.124-.505.29-.705 1.85 1.984 3.644 3.953 4.507 6.616.051-1.496.188-2.988.409-4.468.065-.409-.279-.459-.5-.59a5.867 5.867 0 0 1-2.546-2.715c-1.051-2.41-.512-4.643.904-6.874 1.26 2.62 2.68 5.073 2.574 8.044.41-1.52.95-3.002 1.613-4.43.257-.527-.184-.693-.408-.934-1.383-1.502-1.999-3.247-1.53-5.262.433-1.884 1.513-3.35 3.172-4.486.062 2.877.749 5.68-.187 8.474.55-1.24 1.822-1.991 1.917-3.567.137-2.288 2.493-3.928 5.033-3.735a5.033 5.033 0 0 1 1.667.39c-1.029 1.55-1.764 3.304-3.525 4.214-.364.228-.77.38-1.195.447-1.03.046-1.622.634-2.103 1.44-.253.423-.521.836-.77 1.311 2.209-2.048 4.514-1.377 6.888-.36-1.221 1.658-2.888 2.247-4.805 2.323-.858.042-1.72 0-2.57-.123-.26-.043-.534-.107-.676.22a18.611 18.611 0 0 0-1.354 4.067ZM156.365 49.048a21.336 21.336 0 0 0 3.396-2.398c.291-.248.089-.477-.016-.704a11.914 11.914 0 0 1-1.043-4.07c-.123-1.425.471-2.575 1.292-3.741 1.499 2.039 2.657 4.074 1.523 6.672a13.096 13.096 0 0 0 2.619-3.398c.168-.343-.128-.478-.284-.662-.929-1.123-1.875-2.242-2.332-3.66-.369-1.143-.538-2.31-.115-3.572 2.175 1.352 4.026 2.806 3.72 5.885a12.468 12.468 0 0 0 1.396-4.443c-2.534-1.458-5.362-2.694-5.437-6.382 2.491.663 4.765 1.452 5.634 4.196.132-1.495.029-3-.303-4.464-2.115-.326-4.202-.731-5.768-2.353a4.477 4.477 0 0 1-1.286-2.269c2.453-.505 4.631.334 6.499 2.497-.045-.714-.961-3.421-1.319-4.001-.227-.368-.533-.235-.824-.199-1.73.21-3.416.171-5.066-.467-.889-.342-1.487-.994-2.094-1.671 2.021-1.345 3.866-1.334 6.709.077a11.259 11.259 0 0 0-1.489-2.223.643.643 0 0 0-.385-.15 5.32 5.32 0 0 1-3.947-2.302c-.567-.825-1.104-1.665-1.66-2.508 2.569-1.084 5.494-.02 6.474 2.316.13.26.206.543.224.833-.015.968.427 1.716 1.019 2.43.33.396.567.869.923 1.297-.932-2.777-.25-5.573-.186-8.358 2.9 1.327 4.218 5.745 2.508 8.483a4.597 4.597 0 0 1-.897 1.186c-.489.394-.453.74-.226 1.23a22.135 22.135 0 0 1 1.434 4.244c.36-3.2 1.434-6.455 2.652-8.073 1.115 1.695 1.657 3.484 1.268 5.487-.402 2.064-1.775 3.372-3.545 4.331.338 1.57.396 3.132.507 4.722.764-2.702 2.732-4.587 4.526-6.69a7.054 7.054 0 0 1 .401 3.93c-.458 2.735-2.036 4.363-4.767 4.937-.403.084-.617.219-.666.655-.157 1.381-.68 2.661-1.129 4.008 1.79-2.206 4.31-3.375 6.669-4.814-.056 3.536-1.927 6.493-5.239 6.984-.683.11-1.38.087-2.054-.068-.252-.061-.511-.161-.675.18-.637 1.3-1.625 2.344-2.528 3.452-.035.045-.032.124-.075.317 2.412-1.539 5.106-1.704 7.827-2.198-.827 2.067-2.079 3.58-4.113 4.376-1.572.62-3.108.44-4.565-.265-.65-.317-1.043-.316-1.61.166-1.021.855-2.145 1.581-3.222 2.417 2.714-.98 5.409-.196 8.214.165a6.035 6.035 0 0 1-2.509 2.188c-2.551 1.243-4.899.899-7.007-.995-.365-.328-.638-.403-1.109-.161-.847.438-1.75.767-2.63 1.136-.323.14-.674.252-.859-.16-.184-.411.096-.6.447-.744.86-.356 1.702-.754 2.569-1.096.429-.178.602-.385.515-.912-.26-1.612-.285-3.218.292-4.796.437-1.2 1.302-2.006 2.342-2.78.686 2.427 1.159 4.759-.62 6.95Z" fill="#224722"></path></svg>
