<svg viewBox="0 0 184 64" fill="none" xmlns="http://www.w3.org/2000/svg"><rect x=".774" y="1.403" width="182.495" height="61.871" rx="15.722" stroke="#224722" stroke-width="1.157"></rect><path d="M41.46 25.771h5.335v1.694H41.46v3.608h5.742v1.71h-7.926V20.758h7.807v1.71H41.46v3.303Zm9.968 7.215c-2.05 0-3.422-1.778-3.422-4.42s1.457-4.455 3.574-4.455c1.118 0 1.948.458 2.44 1.406v-5.013h2.031v12.28h-1.913v-1.525c-.475 1.084-1.44 1.727-2.71 1.727Zm.694-1.558c1.186 0 1.948-.999 1.948-2.591v-.542c0-1.66-.745-2.625-1.965-2.625-1.236 0-1.981 1.05-1.981 2.862s.762 2.896 1.998 2.896Zm8.075-8.52h-2.202v-2.116h2.202v2.117Zm-.085 9.875H58.08v-8.468h2.032v8.468Zm2.376-6.995h-1.524v-1.473h1.524V22.18l2.033-.813v2.947h2.066v1.473h-2.066v4.048c0 .898.39 1.338 1.236 1.338.339 0 .56-.05.83-.101v1.71a6.235 6.235 0 0 1-1.389.153c-2.032 0-2.71-1.067-2.71-2.778v-4.37Zm8.641 7.198c-2.439 0-4.15-1.609-4.15-4.454 0-2.829 1.711-4.42 4.15-4.42s4.15 1.591 4.15 4.42c0 2.845-1.711 4.454-4.15 4.454Zm0-1.54c1.304 0 2.066-.983 2.066-2.914 0-1.93-.762-2.88-2.066-2.88-1.304 0-2.083.95-2.083 2.88s.779 2.913 2.083 2.913Zm7.375-7.131v2.05c.423-1.339 1.32-2.254 2.693-2.254.084 0 .152 0 .237.017v1.948h-.271c-.813 0-1.372.22-1.762.593-.677.66-.762 1.626-.762 2.574v3.54h-2.032v-8.468h1.897Zm5.679 1.185h-1.389l-.305-4.742h1.999l-.305 4.742Zm4.224 7.486c-1.93 0-3.37-.813-3.895-2.303l1.507-.677c.39.948 1.237 1.49 2.44 1.49 1.032 0 1.575-.44 1.575-1.05 0-.61-.373-.847-1.203-.983l-1.508-.27c-1.591-.288-2.421-1.118-2.421-2.473 0-1.525 1.304-2.609 3.455-2.609 1.795 0 3.167.729 3.573 1.948l-1.422.762c-.407-.762-1.152-1.236-2.27-1.236-.948 0-1.473.356-1.473 1.016 0 .576.372.83 1.117.966l1.66.305c1.643.287 2.338 1.1 2.338 2.438 0 1.593-1.254 2.676-3.472 2.676Zm13.343.085c-3.777 0-5.624-2.676-5.624-6.317 0-3.744 2.05-6.284 5.657-6.284 2.998 0 4.709 1.71 5.031 4.268l-2.236.322c-.203-1.71-1.202-2.795-2.862-2.795-2.117 0-3.337 1.779-3.337 4.472 0 2.625 1.186 4.505 3.387 4.505 1.542 0 2.592-1.033 2.897-2.727l2.168.44c-.508 2.405-2.151 4.116-5.081 4.116Zm8.319-.288h-2.033v-12.28h2.033v5.37c.508-1.169 1.439-1.762 2.726-1.762 1.83 0 2.795 1.17 2.795 3.405v5.267h-2.049v-5.098c0-1.287-.525-1.948-1.559-1.948-1.219 0-1.913.932-1.913 2.558v4.488Zm10.768.203c-2.439 0-4.15-1.609-4.15-4.454 0-2.829 1.711-4.42 4.15-4.42s4.149 1.591 4.149 4.42c0 2.845-1.71 4.454-4.149 4.454Zm0-1.54c1.304 0 2.066-.983 2.066-2.914 0-1.93-.762-2.88-2.066-2.88-1.304 0-2.084.95-2.084 2.88s.78 2.913 2.084 2.913Zm7.594-8.537h-2.201v-2.117h2.201v2.117Zm-.084 9.874h-2.033v-8.468h2.033v8.468Zm5.458.203c-2.523 0-4.149-1.744-4.149-4.437 0-2.76 1.592-4.438 4.166-4.438 2.101 0 3.472 1.118 3.727 3.05l-1.982.32c-.136-1.15-.796-1.778-1.795-1.778-1.254 0-2.033 1.05-2.033 2.795 0 1.83.762 2.88 2.066 2.88 1.017 0 1.643-.627 1.83-1.813l1.914.39c-.305 1.88-1.728 3.031-3.744 3.031Zm12.23-4.86v.931h-5.945c.017 1.423.914 2.337 2.252 2.337.966 0 1.677-.49 2.067-1.405l1.558.71c-.627 1.474-1.965 2.287-3.692 2.287-2.592 0-4.15-1.575-4.15-4.352 0-2.795 1.524-4.523 4.048-4.523 2.456 0 3.862 1.423 3.862 4.014Zm-5.945-.407h3.946v-.136c0-1.388-.694-2.117-1.897-2.117-1.287 0-2.015.847-2.049 2.253ZM72.794 41.986h1.465L77 49.361H75.63l-.665-1.942h-2.877l-.665 1.942h-1.36l2.731-7.375Zm.499 1.922-.852 2.493h2.17l-.851-2.493a6.598 6.598 0 0 1-.218-.79h-.02c-.074.291-.146.551-.23.79Zm5.508 7.479h-1.246v-7.22h1.184v.904c.322-.675.924-1.028 1.662-1.028 1.246 0 2.088 1.07 2.088 2.711 0 1.672-.873 2.732-2.15 2.732-.738 0-1.257-.364-1.538-.873v2.774Zm1.174-2.857c.748 0 1.215-.665 1.215-1.776S80.744 45 79.985 45c-.748 0-1.215.592-1.215 1.64v.26c0 .998.467 1.631 1.205 1.631Zm4.578 2.857h-1.246v-7.22h1.184v.904c.322-.675.924-1.028 1.662-1.028 1.246 0 2.088 1.07 2.088 2.711 0 1.672-.873 2.732-2.15 2.732-.738 0-1.257-.364-1.538-.873v2.774Zm1.174-2.857c.748 0 1.215-.665 1.215-1.776S86.496 45 85.737 45c-.748 0-1.215.592-1.215 1.64v.26c0 .998.467 1.631 1.205 1.631Zm8.067 1.008c-1.745 0-2.784-.862-3.085-2.067l1.143-.499c.239.831.841 1.496 1.994 1.496.759 0 1.465-.301 1.465-1.07 0-.717-.436-.966-1.247-1.132l-1.028-.218c-1.163-.24-1.942-.862-1.942-2.12 0-1.277 1.049-2.118 2.71-2.118 1.393 0 2.504.571 2.826 1.797l-1.06.56c-.238-.851-.851-1.34-1.828-1.34-.81 0-1.35.375-1.35.998 0 .602.343.914 1.143 1.09l1.08.23c1.215.259 2.026.82 2.026 2.128 0 1.268-.956 2.265-2.847 2.265Zm3.791-4.467h-.934v-.903h.934v-1.31l1.247-.498v1.808h1.267v.903h-1.267v2.483c0 .55.239.82.758.82.208 0 .343-.03.509-.062v1.05c-.301.062-.53.093-.852.093-1.246 0-1.662-.655-1.662-1.704v-2.68Zm5.3 4.415c-1.496 0-2.545-.987-2.545-2.732 0-1.735 1.049-2.711 2.545-2.711s2.545.976 2.545 2.711c0 1.745-1.049 2.732-2.545 2.732Zm0-.945c.8 0 1.267-.603 1.267-1.787s-.467-1.766-1.267-1.766c-.8 0-1.278.582-1.278 1.766 0 1.184.478 1.787 1.278 1.787Zm4.523-4.373v1.257c.259-.821.81-1.382 1.651-1.382a.69.69 0 0 1 .146.01v1.195h-.167c-.498 0-.841.135-1.08.364-.415.405-.467.997-.467 1.578v2.171h-1.247v-5.193h1.164Zm6.771 2.337v.571h-3.646c.011.873.561 1.434 1.382 1.434.592 0 1.028-.302 1.267-.863l.956.437c-.385.903-1.205 1.402-2.265 1.402-1.589 0-2.545-.966-2.545-2.67 0-1.714.935-2.773 2.483-2.773 1.506 0 2.368.873 2.368 2.462Zm-3.646-.25h2.42v-.083c0-.851-.425-1.298-1.163-1.298-.789 0-1.236.52-1.257 1.381ZM18.657 27.042c1.554-2.467 3.962-2.724 6.58-2.65-.447 1.743-1.563 2.855-3.069 3.609a9.487 9.487 0 0 1-3.48.993c-.283.022-.573.04-.632.426a17.43 17.43 0 0 0-.237 4.216c.844-2.75 3.113-3.63 5.631-4.265a5.043 5.043 0 0 1-1.66 3.91 12.614 12.614 0 0 1-3.274 2.164c-.416.186-.555.405-.433.872.31 1.208.553 2.434 1.292 3.742-.16-2.966 1.617-4.424 3.74-5.736.44 1.01.3 1.98.082 2.945-.365 1.63-1.303 2.954-2.43 4.137-.414.434-.405.734-.117 1.228.624 1.09 1.472 1.992 2.356 2.98-1.132-2.62.038-4.663 1.552-6.671.92 1.187 1.46 2.474 1.279 4.015a11.641 11.641 0 0 1-1.048 3.776c-.117.237-.31.512.021.765a33.13 33.13 0 0 0 3.573 2.508c-1.95-2.196-1.569-4.611-.768-7.132 1.582 1.06 2.498 2.473 2.705 4.344.136 1.068.1 2.15-.104 3.207-.113.545.103.784.552.964.805.326 1.635.661 2.442 1.014.318.139.74.282.556.76-.184.477-.56.31-.903.171-.836-.346-1.72-.61-2.5-1.057-.595-.344-.904-.18-1.343.215-1.626 1.46-3.52 1.973-5.642 1.363a6.96 6.96 0 0 1-3.763-2.618c2.797-.441 5.488-1.209 8.277-.244-.75-.531-1.49-1.05-2.226-1.59-.574-.422-1.083-1.067-1.719-1.238-.636-.17-1.242.471-1.9.682-2.113.657-4.727-.13-6.206-1.931a8.591 8.591 0 0 1-1.49-2.513c2.162.05 5.203.886 8.056 2.234-.373-.473-.658-.876-.98-1.23a10.637 10.637 0 0 1-1.727-2.44.658.658 0 0 0-.855-.386c-2.558.505-4.535-.436-6.008-2.503-.907-1.279-1.158-2.775-1.298-4.431 2.485 1.502 5.046 2.682 6.861 4.984-.1-.27-.179-.554-.3-.815a13.44 13.44 0 0 1-.962-3.36c-.05-.29-.094-.548-.48-.595-3.87-.442-5.785-4.348-4.805-8.115.023-.26.124-.505.29-.705 1.85 1.983 3.643 3.952 4.507 6.615.05-1.496.187-2.987.409-4.468.064-.408-.28-.458-.5-.59a5.868 5.868 0 0 1-2.547-2.714c-1.05-2.41-.512-4.643.905-6.874 1.259 2.62 2.68 5.072 2.573 8.044.411-1.52.95-3.003 1.613-4.431.257-.527-.183-.692-.407-.934-1.384-1.501-2-3.247-1.531-5.261.433-1.884 1.514-3.35 3.172-4.487.063 2.877.75 5.68-.187 8.474.55-1.24 1.822-1.99 1.917-3.566.137-2.288 2.493-3.928 5.034-3.735a5.034 5.034 0 0 1 1.666.39c-1.028 1.549-1.763 3.304-3.525 4.213-.363.229-.77.381-1.194.448-1.03.045-1.622.634-2.103 1.44-.253.423-.522.836-.771 1.31 2.21-2.047 4.515-1.376 6.888-.359-1.221 1.658-2.888 2.247-4.804 2.323-.859.041-1.72 0-2.571-.123-.26-.043-.534-.108-.675.22a18.618 18.618 0 0 0-1.355 4.066ZM155.886 49.733a21.297 21.297 0 0 0 3.396-2.398c.291-.247.09-.476-.016-.704a11.935 11.935 0 0 1-1.042-4.069c-.123-1.425.47-2.575 1.292-3.742 1.498 2.04 2.657 4.074 1.523 6.673a13.137 13.137 0 0 0 2.619-3.399c.167-.342-.128-.477-.285-.662-.929-1.123-1.874-2.241-2.332-3.66-.368-1.143-.538-2.309-.114-3.571 2.175 1.352 4.025 2.805 3.719 5.885a12.448 12.448 0 0 0 1.396-4.443c-2.533-1.458-5.362-2.694-5.436-6.383 2.49.663 4.764 1.453 5.633 4.196.132-1.494.03-3-.303-4.463-2.114-.327-4.202-.732-5.768-2.354a4.478 4.478 0 0 1-1.286-2.268c2.454-.506 4.631.333 6.5 2.496-.046-.714-.962-3.42-1.32-4-.226-.368-.533-.236-.824-.2-1.729.211-3.415.172-5.065-.466-.89-.342-1.487-.995-2.094-1.672 2.021-1.345 3.866-1.333 6.708.078a11.295 11.295 0 0 0-1.488-2.223.646.646 0 0 0-.386-.15 5.32 5.32 0 0 1-3.947-2.302c-.566-.825-1.104-1.666-1.66-2.508 2.57-1.084 5.495-.02 6.475 2.316.129.26.205.543.223.833-.014.968.427 1.716 1.02 2.429.33.397.566.869.922 1.297-.932-2.777-.249-5.573-.186-8.358 2.9 1.327 4.218 5.745 2.508 8.483a4.593 4.593 0 0 1-.896 1.187c-.49.393-.453.74-.227 1.23a22.137 22.137 0 0 1 1.435 4.244c.359-3.2 1.434-6.456 2.652-8.074 1.115 1.695 1.657 3.485 1.268 5.488-.403 2.063-1.775 3.371-3.545 4.33.337 1.571.396 3.133.506 4.722.764-2.702 2.733-4.586 4.526-6.689a7.036 7.036 0 0 1 .401 3.929c-.457 2.735-2.036 4.364-4.766 4.938-.403.084-.617.218-.667.654-.157 1.382-.68 2.662-1.128 4.008 1.79-2.206 4.31-3.375 6.668-4.813-.055 3.535-1.927 6.492-5.239 6.984-.682.11-1.38.087-2.054-.069-.251-.06-.51-.16-.675.18-.637 1.3-1.625 2.344-2.527 3.452-.036.045-.032.125-.076.318 2.412-1.54 5.106-1.704 7.828-2.199-.827 2.067-2.079 3.581-4.113 4.376-1.572.62-3.109.44-4.565-.264-.651-.317-1.043-.316-1.611.166-1.021.854-2.145 1.58-3.221 2.417 2.713-.98 5.409-.197 8.214.165a6.036 6.036 0 0 1-2.509 2.187c-2.551 1.243-4.899.9-7.008-.994-.365-.328-.638-.404-1.109-.161-.847.438-1.75.766-2.63 1.136-.322.14-.673.252-.858-.16-.185-.412.095-.6.446-.745.86-.355 1.703-.753 2.57-1.096.428-.177.602-.384.514-.912-.259-1.612-.285-3.218.293-4.795.437-1.2 1.301-2.007 2.341-2.78.686 2.427 1.159 4.758-.62 6.95Z" fill="#224722"></path></svg>
