<svg width="24" height="24" viewBox="0 0 24 24" fill="none" xmlns="http://www.w3.org/2000/svg">
  <path fill-rule="evenodd" clip-rule="evenodd"
    d="M22.5984 12.2509C22.5984 11.4681 22.5281 10.7154 22.3977 9.99274H12V14.2632H17.9415C17.6856 15.6432 16.9078 16.8124 15.7385 17.5953V20.3653H19.3065C21.394 18.4434 22.5984 15.6131 22.5984 12.2509Z"
    fill="#4285F4"></path>
  <path fill-rule="evenodd" clip-rule="evenodd"
    d="M12 23.0398C14.9808 23.0398 17.4799 22.0513 19.3065 20.3652L15.7386 17.5951C14.75 18.2575 13.4854 18.6489 12 18.6489C9.12461 18.6489 6.69079 16.7069 5.82264 14.0974H2.13428V16.9578C3.95086 20.5659 7.68439 23.0398 12 23.0398Z"
    fill="#34A853"></path>
  <path fill-rule="evenodd" clip-rule="evenodd"
    d="M5.82258 14.0977C5.60178 13.4353 5.47632 12.7277 5.47632 12.0001C5.47632 11.2724 5.60178 10.5649 5.82258 9.90246V7.0421H2.13422C1.38651 8.5325 0.959961 10.2186 0.959961 12.0001C0.959961 13.7815 1.38651 15.4676 2.13422 16.958L5.82258 14.0977Z"
    fill="#FBBC05"></path>
  <path fill-rule="evenodd" clip-rule="evenodd"
    d="M12 5.35092C13.6209 5.35092 15.0762 5.90793 16.2203 7.0019L19.3868 3.83542C17.4749 2.05397 14.9758 0.960007 12 0.960007C7.68439 0.960007 3.95086 3.43397 2.13428 7.04204L5.82264 9.90241C6.69079 7.29295 9.12461 5.35092 12 5.35092Z"
    fill="#EA4335"></path>
</svg>
