<svg width="205" height="23" fill="none" xmlns="http://www.w3.org/2000/svg"><path d="M24.942 11.177c0-4.154-3.03-4.457-3.939-4.457-2.077 0-3.635.865-5.171 2.9h-.087c-.454-1.818-1.86-2.9-3.743-2.9-2.272 0-3.614 1.038-4.934 2.618h-.13V6.72h-.41l-5.475.303v.497h1.752v13.61l-2.034.152v.498h8.18v-.498l-2.013-.151V10.225c1.299-1.406 1.991-1.99 2.943-1.99 1.32 0 1.926.822 1.926 2.574v10.344l-1.45.151v.498h7.595v-.498l-2.012-.151V10.397c1.147-1.536 1.97-2.142 2.943-2.142 1.32 0 1.926.822 1.926 2.575v10.343l-1.45.152v.497h7.595v-.497l-2.012-.152v-9.997ZM39.483 10.918c0-2.684-1.926-4.198-5.28-4.198-3.267 0-6.254 1.817-6.254 3.808 0 1.039.823 1.861 1.883 1.861 1.19 0 1.97-.736 1.97-1.883 0-.454-.174-.843-.499-1.146-.28-.26-.779-.541-1.623-.52v-.13c.736-.67 2.121-1.211 3.03-1.211 1.84 0 2.618.8 2.618 2.661v3.614l-3.916 1.298c-2.013.714-4.047 1.731-4.047 3.787 0 1.904 1.472 3.246 3.57 3.246 1.71 0 2.727-.52 4.242-1.602h.151v1.602h.411l5.735-.303v-.498H39.46l.022-10.386Zm-4.155 3.332v5.583c-.562.26-1.103.39-1.666.39-1.32 0-2.164-.996-2.164-2.533 0-1.709.822-2.358 2.142-2.834l1.688-.606ZM52.487 6.72c-1.6 0-3.05 1.385-4.176 3.981h-.108V6.72h-.411l-5.475.303v.497h1.753v13.61l-2.034.152v.498h8.18v-.498l-2.013-.151v-8.699c.736-1.947 1.45-3.224 2.077-3.786h.152c.13 1.45 1.212 2.12 2.164 2.12.973 0 1.99-.649 1.99-2.077 0-1.277-1.081-1.97-2.099-1.97ZM61.228 3.517h-.433L57.16 7.001l-2.012.151v.498h1.947v10.798c0 2.38 1.147 3.591 3.397 3.591 1.493 0 3.203-.389 4.436-1.038l.065-.022v-.52l-.151.066c-.844.368-1.32.476-1.883.476-1.125 0-1.731-.476-1.731-2.965V7.65h3.743V7h-3.743V3.518ZM81.569 11.177c0-4.154-3.03-4.457-3.938-4.457-2.034 0-3.592.779-5.215 2.618h-.13V.315h-.411L66.4.618v.497h1.753V21.11l-2.034.152v.497h8.18v-.497l-2.013-.152V10.203c1.385-1.493 2.186-1.99 3.203-1.99 1.298 0 1.947.865 1.947 2.575V21.13l-1.45.151v.498h7.595v-.498l-2.012-.151v-9.954ZM98.122 21.24H96.11V10.917c0-2.684-1.926-4.198-5.28-4.198-3.267 0-6.254 1.817-6.254 3.808 0 1.039.823 1.861 1.883 1.861 1.19 0 1.97-.736 1.97-1.883 0-.454-.174-.843-.499-1.168-.28-.26-.779-.541-1.623-.52v-.13c.736-.67 2.121-1.21 3.03-1.21 1.84 0 2.618.8 2.618 2.66v3.614L88.04 15.03c-2.013.714-4.047 1.73-4.047 3.787 0 1.904 1.472 3.245 3.57 3.245 1.71 0 2.727-.519 4.242-1.6h.151v1.6h.411l5.734-.303v-.519h.022Zm-9.975-3.55c0-1.709.822-2.358 2.142-2.834l1.688-.606v5.583c-.541.26-1.104.39-1.666.39-1.32 0-2.164-.996-2.164-2.533ZM111.647 12.151c-1.255-.498-2.51-1.212-2.51-2.835 0-1.147.973-2.077 2.163-2.077.801 0 1.45.303 2.099.995.693.65 1.32 1.688 1.948 3.203l.021.065h.476V6.72h-.476l-.173 1.233c-1.406-.844-2.769-1.233-4.154-1.233-3.311 0-5.453 1.688-5.453 4.327 0 2.489 1.471 3.636 3.981 4.782 2.272.996 3.138 1.861 3.138 3.181 0 1.255-.866 2.51-2.532 2.51-.822 0-1.536-.346-2.207-1.103-.584-.628-1.147-1.623-1.818-3.073l-.021-.065h-.498v4.782h.498l.173-1.298c1.471.866 2.943 1.298 4.457 1.298 3.398 0 5.778-1.925 5.778-4.674-.022-2.618-1.58-3.765-4.89-5.236ZM123.742 3.517h-.433l-3.635 3.484-2.013.151v.498h1.948v10.798c0 2.38 1.146 3.591 3.397 3.591 1.493 0 3.202-.389 4.436-1.038l.065-.022v-.52l-.152.066c-.844.368-1.32.476-1.882.476-1.126 0-1.731-.476-1.731-2.965V7.65h3.743V7h-3.743V3.518ZM141.14 16.911c-.628 1.169-2.272 2.337-4.155 2.337-3.159 0-4.674-2.943-4.804-5.929h9.153l.022-.086c.087-.476.108-.974.108-1.493 0-4.652-4.371-5.02-5.712-5.02-3.787 0-7.639 2.661-7.639 7.746 0 2.034.671 3.917 1.904 5.28 1.342 1.493 3.246 2.294 5.497 2.294 3.418 0 5.539-2.532 6.123-5.064l.022-.13h-.498l-.021.065Zm-8.894-4.09c.195-3.721 1.32-5.604 3.354-5.604.498 0 2.099.238 2.099 3.16 0 .692-.086 1.45-.26 2.315l-5.193.13ZM160.592 7.477l2.424.714-2.943 9.91h-.13l-3.137-10.473 1.991-.151v-.498h-8.18v.498l1.515.151 1.212 3.744-1.991 6.73h-.13l-3.614-10.474 1.818-.151v-.498h-8.006v.498l1.515.151 5.214 14.174.022.064h2.553l.022-.086a893.987 893.987 0 0 1 2.099-6.838l.822-2.661 3.203 9.585h2.575l4.219-13.675 2.791-.736V6.98h-5.864v.498ZM178.682 10.918c0-2.684-1.926-4.198-5.28-4.198-3.267 0-6.232 1.817-6.232 3.808 0 1.039.822 1.861 1.883 1.861 1.19 0 1.969-.736 1.969-1.883a1.52 1.52 0 0 0-.498-1.146c-.281-.26-.757-.541-1.623-.52v-.13c.736-.67 2.121-1.211 3.03-1.211 1.839 0 2.618.8 2.618 2.661v3.614l-3.917 1.298c-2.012.714-4.046 1.731-4.046 3.787 0 1.904 1.471 3.246 3.57 3.246 1.71 0 2.727-.52 4.241-1.602h.152v1.602h.411l5.734-.303v-.498h-2.012V10.918Zm-7.963 6.772c0-1.709.822-2.358 2.142-2.834l1.688-.606v5.583c-.541.26-1.104.39-1.666.39-1.32 0-2.164-.996-2.164-2.533ZM191.688 6.72c-1.602 0-3.051 1.385-4.177 3.981h-.108V6.72h-.411l-5.474.303v.497h1.752v13.61l-2.034.152v.498h8.18v-.498l-2.013-.151v-8.699c.736-1.947 1.45-3.224 2.078-3.786h.151c.13 1.45 1.212 2.12 2.164 2.12.974 0 1.991-.649 1.991-2.077.021-1.277-1.082-1.97-2.099-1.97ZM204.172 7.65V7h-3.743V3.518h-.433l-3.635 3.484-2.012.151v.498h1.947v10.798c0 2.38 1.147 3.591 3.397 3.591 1.493 0 3.203-.389 4.436-1.038l.065-.022v-.52l-.151.066c-.844.368-1.32.476-1.883.476-1.125 0-1.731-.476-1.731-2.965V7.65h3.743Z" fill="#224722"></path></svg>
