<svg width="137" height="24" fill="none" xmlns="http://www.w3.org/2000/svg"><path d="M20.35 23.483v-15.2l-5.791 15.2h-2.616l-5.82-15.2v15.2h-5.9V.506h8.24L13.29 13.18 18.04.506h8.238v22.977H20.35ZM38.055 23.482v-1.661a6.883 6.883 0 0 1-5.172 2.064 5.515 5.515 0 0 1-5.722-5.476c0-4.03 3.166-5.378 5.722-5.378a6.666 6.666 0 0 1 5.172 1.966v-1.651c0-1.446-1.239-2.448-3.382-2.448a7.285 7.285 0 0 0-4.65 1.838L28.055 9.05a11.74 11.74 0 0 1 7.55-2.586c3.992 0 7.748 1.475 7.748 6.647v10.372h-5.309.01Zm0-4.276V17.73a3.679 3.679 0 0 0-2.95-1.17c-1.376 0-2.654.62-2.654 1.966 0 1.347 1.278 1.966 2.654 1.966a3.676 3.676 0 0 0 2.95-1.209M43.732 21.31l2.202-3.784a10.392 10.392 0 0 0 5.9 2.241c1.582 0 2.241-.452 2.241-1.17 0-2.065-9.674.069-9.674-6.676 0-2.95 2.546-5.476 7.128-5.476 2.48-.03 4.906.735 6.921 2.183l-2.064 3.755a7.423 7.423 0 0 0-4.916-1.818c-1.249 0-2.065.481-2.065 1.13 0 1.82 9.645-.069 9.645 6.755 0 3.166-2.792 5.437-7.54 5.437a12.26 12.26 0 0 1-7.866-2.586M71.052 23.484v-9.685c0-2.035-1.071-2.684-2.752-2.684a4.09 4.09 0 0 0-3.206 1.622v10.747h-5.309V.506h5.31v8.377a7.511 7.511 0 0 1 5.751-2.448c3.785 0 5.516 2.134 5.516 5.201v11.848h-5.31ZM88 23.482v-1.661a6.882 6.882 0 0 1-5.171 2.064 5.515 5.515 0 0 1-5.723-5.476c0-4.03 3.166-5.378 5.723-5.378A6.666 6.666 0 0 1 88 14.997v-1.651c0-1.446-1.239-2.448-3.382-2.448a7.285 7.285 0 0 0-4.64 1.838L78.01 9.05a11.74 11.74 0 0 1 7.55-2.586c3.993 0 7.748 1.475 7.748 6.647v10.372H88Zm0-4.276V17.73a3.679 3.679 0 0 0-2.95-1.17c-1.376 0-2.654.62-2.654 1.966 0 1.347 1.278 1.966 2.655 1.966A3.676 3.676 0 0 0 88 19.285M95.132 23.483V.506h5.309v8.298a6.135 6.135 0 0 1 4.916-2.38c4.169 0 7.335 3.275 7.335 8.712 0 5.653-3.235 8.75-7.335 8.75a6.362 6.362 0 0 1-4.916-2.34v1.967h-5.31v-.03Zm8.445-4.277c2.104 0 3.687-1.553 3.687-4.06 0-2.508-1.583-4.032-3.687-4.032a4.246 4.246 0 0 0-3.165 1.515v5.093a4.204 4.204 0 0 0 3.165 1.474M113.409.507h5.309v22.977h-5.309V.507ZM119.515 15.145a8.55 8.55 0 0 1 2.552-6.258 8.55 8.55 0 0 1 6.297-2.453c4.916 0 8.505 3.619 8.505 9.272v1.21h-11.877c.373 1.474 1.76 2.723 4.168 2.723a6.882 6.882 0 0 0 4.071-1.416l2.31 3.48a10.815 10.815 0 0 1-6.961 2.203c-5.132 0-9.055-3.343-9.055-8.75m8.849-4.445a3.099 3.099 0 0 0-3.412 2.586h6.882c-.137-1.17-.983-2.586-3.441-2.586" fill="#224722"></path></svg>
