<svg width="164" height="26" fill="none" xmlns="http://www.w3.org/2000/svg"><path d="M24.75 5.073h-2.305v20.09h-4.32L7.61 11.481v9.217h2.304v4.465H.195v-4.465h2.304V5.073H.194V.608h7.417l9.793 12.746V5.073H15.1V.608h9.721c-.072 0-.072 4.465-.072 4.465Zm15.41 11.449v1.152H29.43c-.288 3.457 1.008 4.465 2.952 4.465 1.656 0 2.88-1.08 2.88-2.809h4.609c-.072 3.025-1.656 6.481-7.777 6.481-6.049 0-8.857-4.392-8.857-9.289 0-4.392 2.88-9.073 8.785-9.073 5.617 0 8.137 3.96 8.137 9.073Zm26.498-4.392h-1.584l-3.96 13.321h-5.257l-2.448-7.273-2.233 7.273h-5.328L41.455 12.13h-1.584V7.594h9.29v4.537h-2.305l2.448 7.056 3.168-11.593h2.88l3.89 11.593 2.088-7.056h-2.305V7.593h7.777c-.144 0-.144 4.537-.144 4.537Zm6.553.143c0 .649.504 1.08 2.232 1.585l2.52.792c2.305.792 5.113 2.448 5.113 5.617 0 3.672-2.736 5.472-6.193 5.472-2.736 0-4.824-1.296-5.4-1.944v1.512h-4.537v-6.193h4.465c.144 2.017 1.944 3.097 3.528 3.097 1.296 0 1.944-.576 1.944-1.224 0-.792-.504-1.297-2.736-2.017l-2.232-.72c-2.233-.72-4.753-2.376-4.753-5.4 0-3.673 3.24-5.473 5.977-5.473 2.88 0 4.249.792 4.969 1.584V7.593h4.536v5.545h-4.68c-.073-1.512-1.513-2.16-3.025-2.16-1.224.071-1.728.575-1.728 1.296Zm37.012-.143h-1.584l-3.96 13.321h-5.257l-2.448-7.273-2.233 7.273h-5.328L85.02 12.13h-1.584V7.594h9.29v4.537H90.42l2.448 7.056 3.097-11.593h2.88l3.888 11.593 2.089-7.056h-2.377V7.593h7.777v4.537Zm16.418 4.392v1.152h-10.657c-.288 3.457 1.008 4.465 2.952 4.465 1.657 0 2.881-1.08 2.881-2.809h4.608c-.072 3.025-1.728 6.481-7.777 6.481-6.12 0-8.929-4.392-8.929-9.289 0-4.392 2.953-9.073 8.857-9.073 5.617 0 8.065 3.888 8.065 9.073Zm17.57-.072v1.152h-10.657c-.288 3.457 1.008 4.465 2.952 4.465 1.657 0 2.881-1.08 2.881-2.809h4.608c-.072 3.025-1.728 6.481-7.777 6.481-6.12 0-8.929-4.392-8.929-9.289 0-4.393 2.953-9.073 8.857-9.073 5.617 0 8.065 3.888 8.065 9.073Zm19.371 8.93h-5.329l-5.545-7.274-1.8 1.368v1.44h1.584v4.537h-8.281v-4.464h1.585V5.145h-2.305V.608h7.417v14.258l3.745-2.736h-2.305V7.593h9.866v4.537h-1.585l-3.888 2.88 4.464 5.833h2.305c.072.072.072 4.536.072 4.536Zm-30.028-10.658h5.833c0-2.52-1.656-3.529-2.809-3.529-1.44 0-2.952 1.152-3.024 3.529Zm-17.57 0h5.833c0-2.52-1.656-3.529-2.881-3.529-1.368.072-2.88 1.225-2.952 3.529Zm-86.482.072h5.832c0-2.52-1.656-3.529-2.88-3.529-1.44 0-2.88 1.153-2.952 3.529Z" fill="#224722"></path></svg>
