<svg width="136" height="31" fill="none" xmlns="http://www.w3.org/2000/svg"><path d="m101.649 7.821-.132 3.966c-4.63-.318-5.953.872-5.953 4.758v.501h-3.969V8.06h3.969v2.564c1.19-2.088 2.805-3.04 6.085-2.802ZM7.197 23.947h3.968V8.614H7.197v15.333Zm19.657-16.1c-2.778 0-4.471 1.243-5.37 2.617V2.005H.581v3.701h17.197v11.34h3.784c0-3.251 1.878-5.55 4.18-5.55 1.985 0 2.884.978 2.884 4.494v7.957h3.968v-9.385c0-4.493-2.301-6.714-5.74-6.714Zm15.61 13.06c-2.407 0-3.969-1.455-4.233-3.86H34.5c.37 4.23 3.148 7.217 7.937 7.217 3.704 0 5.794-1.666 6.879-4.177l-3.36-1.48c-.504 1.506-1.43 2.3-3.493 2.3Zm-.159-12.98a8.405 8.405 0 0 0-4.074.951l1.905 2.696a4.616 4.616 0 0 1 2.302-.528c2.222 0 3.36 1.454 3.518 3.357H42.12v2.644h7.567c.053-.397.08-.767.08-1.163.026-5.764-3.784-7.958-7.462-7.958Zm39.29 12.98c-2.408 0-3.97-1.455-4.234-3.86h-3.73c.37 4.23 3.148 7.217 7.937 7.217 3.704 0 5.794-1.666 6.879-4.177l-3.36-1.48c-.53 1.506-1.455 2.3-3.493 2.3Zm-.133-12.98a8.404 8.404 0 0 0-4.074.951l1.905 2.696a4.615 4.615 0 0 1 2.301-.528c2.223 0 3.36 1.454 3.52 3.357h-3.837v2.644h7.567c.053-.397.079-.767.079-1.163.027-5.764-3.784-7.958-7.46-7.958Zm46.512 12.98c-2.408 0-3.969-1.455-4.233-3.86h-3.731c.371 4.23 3.149 7.217 7.938 7.217 3.704 0 5.794-1.666 6.879-4.177l-3.361-1.48c-.529 1.506-1.455 2.3-3.492 2.3Zm-.212-12.98a8.405 8.405 0 0 0-4.074.951l1.905 2.696a4.616 4.616 0 0 1 2.302-.528c2.222 0 3.36 1.454 3.518 3.357h-3.836v2.644h7.567c.053-.397.079-.767.079-1.163.027-5.764-3.783-7.958-7.461-7.958ZM51.803.127l7.138 16.918h4.34L57.835 3.591h7.037V.155L51.803.129ZM72.97.154l-8.175 20.7-1.217 3.093h4.154L77.546.155H72.97Zm36.485 23.423c1.693 0 3.096-.476 4.074-1.296l-1.587-2.51c-.503.21-1.058.29-1.614.29-2.169 0-3.413-1.296-3.836-3.014h-3.89c.53 3.675 3.175 6.53 6.853 6.53Zm4.894-13.297c-.899-1.428-2.725-2.459-5.265-2.459a6.79 6.79 0 0 0-6.005 3.516l3.307 2.115c.608-1.269 1.799-2.115 3.625-2.115 2.592 0 4.338 2.01 4.338 4.388 0 .45-.053.9-.185 1.322h4.154V8.086h-3.969v2.194Zm-3.836 16.892c-2.566 0-3.519-1.242-3.704-2.697h-3.783c.079 2.776 1.931 5.816 7.567 5.816 3.809 0 6.296-1.903 7.328-4.758l-3.572-1.242c-.502 1.85-1.878 2.88-3.836 2.88Z" fill="#224722"></path></svg>
