<svg width="230" height="32" fill="none" xmlns="http://www.w3.org/2000/svg"><path fill-rule="evenodd" clip-rule="evenodd" d="m186.993 12.64 3.264-2.498.171-.081.23-.028.286.028 1.719 1.746c.057.081.115.134.172.188.085.08.142.135.199.162l.23.08.315-.053 2.893-1.99.258-.107.17-.054.201.081 2.004 2.07.145.161a.79.79 0 0 0 .228.08c.028 0 .172-.08.487-.268s.744-.457 1.231-.779c.487-.35.916-.646 1.231-.887.314-.243.515-.404.572-.458h.172c.115.054.201.081.23.109l2.061 2.122.172.135h.201l.229-.108.859-.564.2.214-1.26.86v7.342l.144.243.973 1.021.115.08a.701.701 0 0 0 .315-.053l.573-.457v.322l-3.208 2.688-.172.08-.2.055-.228-.08-2.206-2.286a.581.581 0 0 0-.115-.134.362.362 0 0 1-.057-.161c-.028-.108-.058-.188-.028-.242l.142-.188.258-.189.115-.295.086-.323V14.387l-.201-.322-1.432-1.64-.172-.107-.257-.027-.572.322-.086.297v7.664l.773.86.056.108v.133l-.113.108-2.349 2.07-.171.08h-.144a.876.876 0 0 0-.2-.161l-2.061-2.123-.115-.188v-.162l.086-.187.63-.565v-6.455l-1.748-1.828-.285-.053a.878.878 0 0 0-.43.242l-.143.268v7.584l.83 1.048.114.135v.16l-.17.243-2.378 1.989-.171.053h-.143l-.144-.134-2.148-2.392-.085-.161-.03-.161c.088-.081.115-.135.145-.162l.658-.537v-6.509l-1.375-1.559-.229-.107-.229.027-.144.053-.772.537-.172-.188ZM14.556 20.5c-.12.091-.244.18-.376.261l.376-.24v-.02ZM4.34 12.523a6.293 6.293 0 0 0-.063.875c0 .469.031.844.031 1.155 0 .47.032.844.094 1.188.094.343.187.75.281 1.155.125.406.344.875.656 1.406l.5.812c.843-.468 1.312-.718 1.343-.75l.031-8.215-2.436 1.062c-.125.22-.219.375-.25.531-.063.157-.125.438-.187.781Zm9.527-5.06c-.156 0-.313-.032-.531-.063a8.735 8.735 0 0 0-.843-.186 60.279 60.279 0 0 1-1-.19c-.312-.092-.719-.186-1.25-.342l-2.467-.75c-.563-.157-.906-.312-1.125-.343a4.963 4.963 0 0 0-.656-.156c-.219-.032-.469-.094-.687-.125-.219-.032-.407-.063-.531-.063-.094 0-.219.031-.375.063a1.74 1.74 0 0 0-.5.218c-.156.125-.281.218-.375.312l-.28.281c-.094.125-.157.25-.189.375-.03.126 0 .344.032.657l.125.405.094.25.125.282-.719-.281a1.133 1.133 0 0 1-.343-.313c-.094-.094-.188-.313-.344-.593-.281-.438-.406-.937-.406-1.5 0-.344.03-.625.062-.843.031-.219.156-.563.344-1.032.188-.467.469-.843.843-1.124.406-.312.687-.5.875-.593.187-.094.406-.188.687-.25.531-.188 1.062-.344 1.625-.344.405 0 .812.062 1.218.156.406.094.718.188.937.22.25.062.468.124.687.156.22.062.72.248 1.437.53.188.031.532.156 1.03.313.5.156.97.281 1.407.375l.843.28c.406.125.719.188.938.188.28-.032.53-.093.718-.157a1.48 1.48 0 0 0 .5-.405c.187-.344.28-.532.28-.594 0-.157-.03-.282-.062-.374a1.445 1.445 0 0 1-.156-.313l-.593-.531c-.188-.094-.375-.188-.594-.218-.188-.094-.375-.156-.562-.25h.75c.218 0 .5.031.874.094.406.062.781.248 1.125.53.406.156.687.375.906.657.218.28.343.499.406.655.093.156.156.375.187.625s.063.437.063.53c0 .126 0 .25-.063.407 0 .157-.062.437-.156.812-.094.407-.281.782-.562 1.187a2.953 2.953 0 0 1-.906.874 4.334 4.334 0 0 1-1.062.407l-.906.094h-.563c.157.592.25 1.25.281 2.03.032.781.063 1.468.095 2.124l-.22-.187 2.094 1.874-2.062 1.843.188-.125V20.5c.109-.084.213-.17.312-.26.344-.313.624-.563.843-.782.219-.218.469-.5.75-.875.282-.406.563-.75.78-1.062l.625-.874-.03.655v.532c0 .25-.032.437-.032.593-.062.156-.062.313-.124.469 0 .187-.063.375-.157.593a2.758 2.758 0 0 0-.188.531 5.562 5.562 0 0 1-.312.656c-.156.313-.406.687-.687 1.125a7.02 7.02 0 0 1-.874 1.093c-.281.281-.656.563-1.063.844-.437.28-.812.469-1.093.625a7.992 7.992 0 0 1-1.03.437c-.376.125-.688.218-.938.281-.25.063-.563.094-.937.094-.188.03-.375.062-.594.062H9.34c-.281 0-.72-.031-1.25-.125a6.963 6.963 0 0 1-1.843-.593c-.656-.312-1.187-.594-1.593-.875-.406-.281-.75-.531-1-.75a7.902 7.902 0 0 1-.843-.906c-.312-.375-.562-.687-.719-.937a9.25 9.25 0 0 1-.531-1c-.187-.406-.344-.811-.406-1.186-.094-.375-.218-.844-.312-1.375l-.063-1.718.094-1.593c.094-.656.281-1.25.5-1.78.25-.532.468-.969.687-1.25.219-.282.406-.562.562-.75.406-.5.844-.938 1.25-1.28.406-.344.75-.626.968-.782.25-.186.562-.374.937-.593.375-.219.656-.406.875-.5.219-.125.469-.187.813-.25l.624-.093-.593.468c-.407.312-.72.656-1.032.938a4.57 4.57 0 0 0-.811.968c-.22.343-.375.718-.532 1.124L11.4 7.9v8.809l-5.31 2.687.218.25.438.406c.28.25.5.437.656.53.187.094.406.22.624.344.22.125.5.25.844.344.343.093.687.187 1.094.25.405.062.78.093 1.124.093.156 0 .5-.03 1-.062a6.103 6.103 0 0 0 1.562-.5c.187-.087.363-.184.53-.29V15.022l.188.125-2.187-1.843 2-1.738V7.463h-.313ZM19.51 6.08l-.054-.324-.135-.271-.243-.189c-.136-.108-.217-.163-.244-.216l-.135-.325 4.463-3.353V20.44l.757.703c.081.027.216.054.379.135l.27-.054.595-.433.19.162-3.733 3.057c-.081.027-.19.108-.351.189l-.325-.054c-.108-.081-.27-.217-.46-.379-.189-.162-.46-.406-.811-.758-.352-.324-.65-.622-.947-.892a1.873 1.873 0 0 1-.27-.108l-.27.081-.488.325-.189-.216 2.001-1.623V6.08Zm3.722 6.62-.043-.535 3.84-3.137 2.948 3.083 1.217-.81.19.242-1.407 1.136v9.737c-.08.514-.19 1.028-.27 1.569-.082.513-.298 1.027-.595 1.514-.298.486-.568.866-.784 1.108-.19.244-.514.488-.92.785-.406.27-.73.46-.974.541-.216.081-.487.135-.784.216a5.07 5.07 0 0 1-.92.081h-2.056c.298-.135.569-.243.812-.378.244-.108.46-.216.676-.352.19-.135.352-.243.487-.325.108-.08.27-.27.46-.513.19-.244.406-.975.595-1.408.162-.433.298-.323.352-.459.053-.134.135-.378.162-.675l.135-1.082v-8.952l-.081-.325-.162-.297-.27-.298-1.31-1.494-1.298 1.028Zm15.142-2.857c.136-.08.243-.108.243-.135.055-.027.082-.027.163-.027l.19.054.108.054c.026.027.081.054.081.11.054.053.243.377.622.945.351.568.703 1.109 1.028 1.677.297.54.514.92.648 1.136.109.216.163.378.163.513l-.054.244c0 .027-.082.108-.217.243-1.027.65-1.92 1.217-2.65 1.704-.73.46-1.433.947-2.137 1.433-.108.109-.243.244-.432.38a.948.948 0 0 0-.081.432c0 .19.027.325.08.433l.325.405 2.082 1.92.244.054.244-.027 3.056-2.352.216.216-5.517 4.3-.325.19-.189.08h-.216l-.082-.108-.216-.162-3.219-2.812-1.108.946v-.378l1.108-.974v-7.492l5.842-3.002Zm-2.137 7.6c.217-.136.46-.27.73-.433.272-.162.488-.324.677-.433l.946-.595.109-.189v-.243c0-.027-.082-.136-.216-.352l-1.867-3.083-.243-.406-.19-.054-.08.135v5.49l.027.109.107.054ZM63.145 6.186v.112c-.175-.005-.313-.026-.43-.026-.246 0-.41-.028-.546-.055-.137-.027-.327-.11-.519-.192a2.609 2.609 0 0 1-.6-.327c-.192-.136-.273-.191-.3-.191l-.71-.382L59.03 6l-.3-.247 3.33-3.413.136-.163a.464.464 0 0 1 .164-.164h.246c.081.082.218.192.41.301.19.108.464.245.764.437.191.082.382.135.628.191.245.054.464.081.655.081.273 0 .519-.027.71-.108.191-.082.355-.164.464-.246.11-.082.246-.192.41-.355.19-.164.272-.273.3-.3l.163-.41.192.355.082.409.054.574c0 .355-.054.627-.136.846a1.844 1.844 0 0 1-.219.464c-.054.082-.163.191-.273.382-.136.191-.273.355-.382.492-.136.137-.328.3-.6.491-.273.192-.546.3-.847.383-.3.081-.546.163-.682.19a1.652 1.652 0 0 1-.333.075l-.82-.078Zm.466 10.451-.466-.774V6.298c.334.001.553.001.69-.026l.132-.008v17.851l-.356-7.478ZM56.755 5.241l6.39 10.622v8.252c0 .03.555.06.673.06.09.03.149 0 .149-.06 0 .238 0 .357-.03.386l-.148.148-.208.12h-.237c-.09 0-.149-.03-.208-.06a.355.355 0 0 1-.148-.148.942.942 0 0 1-.356-.327c-.09-.149-.209-.326-.297-.474L53.314 7.705l-.268-.416-.148-.118-.119-.06c-.059 0-.118.118-.148.327V19.04l.148.207.357.149c.305 0 1.275.504 1.483.593.208.12.386.238.534.327.148.089.297.178.386.237l.415.298c.09.148.178.237.267.237.09.059.178.059.268.059.148-.09.296-.148.385-.178.09-.06.178-.149.267-.238.09-.089.178-.178.208-.237l.178-.207.297.177-3.947 4.007c-.089.03-.148.059-.238.089a.503.503 0 0 1-.148-.06.475.475 0 0 1-.178-.089l-.474-.327c-.15-.118.547-.237.398-.325-.148-.09-.326-.209-.533-.298a3.018 3.018 0 0 0-.564-.178c-.178-.03-.357-.03-.564-.03-.208 0-.416.03-.682.09-.268.06-.535.178-.742.326-.208.149-.387.415-.476.772-.03.237-.059.416-.059.534l.06.326c.03.149.118.357.297.564.207.208.474.416.83.594l.713.326.534.149h-1.217c-.386 0-.712-.03-.92-.09a4.693 4.693 0 0 1-.89-.385c-.386-.208-.712-.445-.89-.653-.208-.237-.386-.416-.475-.534a3.163 3.163 0 0 1-.237-.445 3.163 3.163 0 0 1-.209-.564 2.01 2.01 0 0 1-.089-.534v-.98c.03-.385.149-.742.327-1.038.178-.297.326-.505.445-.654.148-.148.326-.326.564-.533.238-.208.445-.357.623-.475.208-.119.505-.267.89-.416.386-.148.772-.267 1.128-.297a3.99 3.99 0 0 1 .696-.06c.148 0 .032-.355.062-.503v-4.748l-.237-.178a.553.553 0 0 0-.327-.119c-.237 0-.474.06-.683.089a.896.896 0 0 0-.504.237c-.148.119-.237.208-.237.267-.06.09-.06.209-.06.386v.267c0 .03.03.09.06.178.06.09.089.12.118.149l.238.356-.593-.03-.416-.178a2.332 2.332 0 0 1-.594-.415c-.148-.178-.267-.327-.356-.416a2.26 2.26 0 0 1-.267-.475 2.26 2.26 0 0 1-.148-.504c-.03-.149-.03-.356-.03-.623v-.772c.03-.237.119-.445.238-.623.118-.208.237-.326.325-.386.09-.089.209-.177.357-.296a3.84 3.84 0 0 1 .415-.357c.12-.088.238-.177.386-.237.149-.059.297-.119.505-.178.208-.06.504-.149.89-.179l.92-.089V6.132l-.207-.357a1.327 1.327 0 0 0-.327-.385c-.149-.119-.267-.238-.386-.356a.997.997 0 0 0-.445-.207 1.597 1.597 0 0 0-.742-.06.924.924 0 0 0-.534.267 1.957 1.957 0 0 0-.356.356l-.178.355-.208.299c-.03-.15-.09-.299-.09-.506-.059-.207-.059-.356-.059-.444 0-.209.03-.416.06-.564.03-.179.089-.357.119-.535.059-.208.118-.385.207-.535.09-.177.268-.444.505-.77.267-.357.653-.653 1.187-.921a3.777 3.777 0 0 1 1.661-.386c.387 0 .683.03.862.06.178.059.415.178.742.326.325.15.593.327.77.475.208.149.416.356.684.623.266.267.563.624.83 1.068.267.446.564.892.801 1.306Zm15.267 4.603c.134-.08.243-.108.243-.135.054-.027.081-.027.162-.027l.19.054.107.054c.027.027.082.054.082.11.054.053.243.377.622.945.351.568.703 1.109 1.028 1.677.297.54.513.92.649 1.136.108.216.162.378.162.513l-.054.244c0 .027-.081.108-.217.243-1.027.65-1.92 1.217-2.65 1.704-.73.46-1.434.947-2.136 1.433a3.338 3.338 0 0 1-.433.38.94.94 0 0 0-.082.432c0 .19.027.325.082.433l.324.405 2.083 1.92.243.054.243-.027 3.057-2.352.216.216-5.517 4.3-.325.19-.19.08h-.216l-.08-.108-.217-.162-3.218-2.812-1.11.946v-.378l1.11-.974v-7.492l5.841-3.002Zm-2.137 7.6c.216-.136.46-.27.73-.433.27-.162.487-.324.676-.433l.947-.595.108-.189v-.243c0-.027-.081-.136-.217-.352l-1.866-3.083-.243-.406-.19-.054-.08.135v5.49l.027.109.108.054ZM101.284 4.19c0-.28.03-.498.06-.653a1.19 1.19 0 0 1 .211-.435c.091-.155.181-.28.273-.403.09-.155.241-.311.392-.498a2.1 2.1 0 0 1 .423-.465c.151-.094.302-.218.453-.311.151-.124.363-.217.635-.31.271-.093.453-.155.604-.187.151-.031.362-.031.634-.031.393 0 .755.063 1.118.155.392.125.755.343 1.117.653.363.31.604.651.756 1.025.151.403.211.714.241.932.03.216.03.496.03.806V22.201l.182.28c.211.093.423.155.634.217.212.063.453.094.664.094h.393c.121-.031.182-.156.182-.311-.03-.155-.03-.28-.03-.373V1.178h.513c0 .278 0 .496-.03.713v.714c0 .467 0 .777.03.963l.03.218.211-.032c.484-.341.998-.745 1.541-1.149a13.1 13.1 0 0 0 1.511-1.335l.211-.218c.121-.092.212-.124.242-.124.151.094.272.187.392.28.152.093.484.403 1.028.9.543.497.876.809 1.027.932l.181.155.211.124c.151-.092.242-.186.332-.217l.937-.746.242.25-1.209.962-.181.279-.03.404v16.521l-.121.777c-.06.342-.181.683-.362.963-.182.31-.453.59-.847.87-.392.279-.754.465-1.117.527-.393.062-.725.093-.996.125h-.726c-.271 0-.573-.032-.876-.125-.302-.093-.604-.155-.906-.248-.302-.093-.664-.186-1.118-.342a13.432 13.432 0 0 0-1.027-.31c-.272-.063-.483-.125-.634-.156-.151-.03-.423-.092-.785-.092-.363-.063-.665-.063-.877-.094-.211-.031-.453-.031-.664-.031-.272 0-.514 0-.725.03a5.49 5.49 0 0 0-.906.095c-.363.092-.605.123-.695.185-.121 0-.272.156-.483.342-.212.218-.363.466-.393.683-.03.249-.061.497-.061.715 0 .124.031.28.061.435.03.154.151.341.332.496.212.156.423.28.665.373.241.093.483.124.694.124.152 0 .363-.03.665-.061.302-.032.544-.063.695-.063.332 0 .755-.062 1.269-.186.513-.124.785-.187.815-.187l2.568-.403c.816-.124 1.661-.217 2.477-.342h.574c.151 0 .332.03.544.062.241.063.453.125.634.187.181.093.423.217.725.403.332.218.634.497.906.87.302.403.484.714.514.994.03.279.06.496.06.714 0 .124 0 .28-.03.434-.03.156-.03.373-.091.59 0 .25-.121.528-.272.808-.151.31-.302.528-.422.621a11.24 11.24 0 0 1-.514.404c-.212.155-.393.31-.543.404a1.695 1.695 0 0 1-.514.28l-.816.154-.302.031c.09-.124.212-.248.302-.403.121-.155.211-.28.272-.404.091-.124.151-.217.181-.31a.931.931 0 0 0 .121-.311v-.373c0-.124 0-.217-.06-.31 0-.093-.151-.249-.423-.435s-.634-.28-1.088-.28c-.242 0-.483.032-.755.094s-.513.155-.755.186l-2.235.404c-.152.03-.454.093-.937.186-.483.093-.906.186-1.269.217-.362.062-.634.094-.846.125h-.876c-.332 0-.634 0-.846-.031-.241-.032-.483-.063-.725-.125a10.911 10.911 0 0 1-.694-.186c-.212-.062-.423-.186-.665-.373-.241-.217-.423-.403-.513-.558-.121-.187-.242-.405-.363-.621a6.01 6.01 0 0 1-.332-.777c-.121-.28-.212-.59-.212-.87 0-.248 0-.466.03-.652 0-.186.031-.466.121-.838.091-.404.242-.777.514-1.118.272-.342.544-.59.785-.746.242-.155.453-.28.635-.373l.544-.31.301-.248v-8.044l-.12-.372c-.031-.062-.091-.093-.151-.124-.06-.032-.121-.032-.152-.032-.12-.03-.271 0-.452.032-.212 0-.393.124-.605.279-.211.155-.302.341-.302.559 0 .156.031.31.061.466.06.155.12.31.211.404.091.124.151.217.181.28l-.422-.094c-.152-.031-.333-.124-.545-.249a1.966 1.966 0 0 1-.634-.683c-.211-.342-.332-.62-.362-.9l-.091-.715c0-.341.06-.683.181-1.056.152-.404.302-.683.484-.838.211-.155.362-.28.514-.373.151-.093.362-.217.603-.311.394-.093.726-.186 1.028-.279.332-.092.513-.217.543-.31l.03-.341V4.655c-.03-.124-.03-.25-.06-.404 0-.155-.06-.342-.151-.56a.837.837 0 0 0-.453-.464l-.483-.094c-.152 0-.302 0-.423.031a.815.815 0 0 0-.393.094c-.151.092-.241.155-.302.248-.06.093-.121.186-.151.217l-.332.467Zm9.546 6.49c.06.093.211.186.453.31.271.125.513.186.755.186.271 0 .543-.03.785-.124.272-.092.423-.155.453-.249.061-.092.091-.216.121-.31 0-.092 0-.217.03-.31V5.835l-.06-.372-.091-.187c-.03-.094-.09-.155-.12-.249l-1.36-1.241c-.121 0-.242 0-.362-.032-.031 0-.151.093-.302.25-.182.186-.302.34-.333.464l-.151.528v5.25l.182.434Zm2.597 1.677v-.963c-.332.093-.574.187-.785.249a2.258 2.258 0 0 1-.634.092c-.212 0-.424-.03-.635-.092-.211-.062-.392-.156-.604-.25-.03 0-.091.063-.121.219v1.52c.03.157.091.219.121.219.181-.094.393-.156.604-.218.242-.093.453-.124.635-.124.211 0 .452.03.695.124.241.093.483.156.724.218v-.994Zm0 1.553c-.332-.094-.574-.187-.785-.25a2.248 2.248 0 0 0-.634-.092c-.212 0-.424.03-.635.093-.211.062-.392.155-.604.249-.061.093-.091.186-.121.248v8.509l.03.31c.03.063.091.094.182.094h.272l.664-.094c.091 0 .212-.093.363-.185.15-.125.301-.25.453-.342.151-.094.271-.28.423-.528.151-.28.241-.621.271-1.025.061-.404.091-.683.121-.776V13.91Zm12.688-.141c-.257-.4-.657-.77-1.142-1.198-.484-.4-.912-.77-1.312-1.114l-.171-.056-.114.085-.056.115v7.673c0 .143 0 .257.056.343 0 .057.057.114.114.17a.636.636 0 0 0 .114.144l2.34 2.167.228.029.171-.228v-7.474a1.663 1.663 0 0 0-.114-.485l-.114-.171Zm-6.162-1.37.228-.17 5.135-2.597c.086-.027.142-.085.228-.113.086-.029.142-.058.228-.058.172.086.343.144.513.2l3.082 2.796.113.114c.059.057.115.085.143.085.115-.057.228-.114.343-.2l.6-.513h.312v.143l-.855.827c-.114.086-.143.114-.172.171V20.444c-.028.2-.086.314-.113.37-.029.058-.086.086-.143.115-.029.028-.286.171-.713.428-.429.256-1.141.656-2.082 1.198-.942.542-1.655.913-2.197 1.17-.542.256-.827.399-.885.428a.413.413 0 0 1-.199.056 2.924 2.924 0 0 1-.429-.199c-.427-.428-.883-.913-1.425-1.398a9.387 9.387 0 0 0-1.541-1.198c-.085-.029-.171-.057-.285-.143-.086.057-.2.114-.285.143l-.543.485-.228-.229.799-.713.171-.485V13.37c-.028-.029-.028-.058-.028-.114v-.229c0-.171.028-.313.085-.428l.143-.2Zm12.117-.312 3.004-2.596c.026-.027.081-.054.107-.08.054-.03.109-.03.162-.03.081.056.163.083.217.11l1.488 1.866.163.135.134.054c.027 0 .135-.054.27-.162l1.57-1.65c.026-.026.08-.081.161-.109a.443.443 0 0 1 .244-.08c.055 0 .216.053.46.189.269.135.54.243.811.351a.735.735 0 0 0 .351-.08c.135-.055.271-.109.461-.162.188-.082.323-.163.405-.298h.244c0 .189 0 .351-.027.54 0 .19-.028.433-.082.704-.081.271-.189.54-.324.838a2.346 2.346 0 0 1-.622.73c-.271.217-.541.406-.865.542a2.277 2.277 0 0 1-.84.189c-.189 0-.324 0-.46-.027a1.622 1.622 0 0 1-.486-.19 7.29 7.29 0 0 0-.487-.324l-.324-.325-.108-.135-.109-.027-.161.135v8.442l1.054 1.109c.027 0 .108.027.216.108a3.34 3.34 0 0 0 .271-.081l.757-.595h.325c-.46.46-.948.974-1.516 1.541-.568.568-1.054.92-1.406 1.11-.379.189-.621.324-.757.378a.735.735 0 0 1-.271-.108l-.216-.19-1.703-1.65c-.082-.08-.163-.135-.245-.216-.079-.081-.189-.108-.323-.108-.082 0-.19.054-.326.135a2.615 2.615 0 0 0-.216.19l-.27.243-.189-.216 1.135-.974.189-.406c.028-.08.028-.162.055-.297 0-.135 0-.27.027-.406v-6.683l-.054-.379-.783-1.055c-.055-.108-.11-.162-.136-.162h-.244l-.621.46-.136.108-.163-.244.189-.162Zm11.287-7.864 3.949-2.624.134-.08c.027 0 .082.054.163.162l.027.433v13.329l4.387-5.906c.107-.162.217-.216.297-.216a.848.848 0 0 0 .325.297c.134.082.216.163.297.19.082.053.19.108.379.161.136.083.27.136.405.163.136.028.271.054.433.054.135 0 .271 0 .379-.026.108-.028.297-.055.541-.19l.541-.27c.108-.082.216-.19.351-.297l-.027.649c-.026.08-.053.216-.136.35-.08.163-.134.325-.188.487-.054.19-.162.38-.298.622l-.324.487-.244.244-.324.243a2.52 2.52 0 0 1-.596.27c-.269.109-.594.163-1 .163a1.42 1.42 0 0 1-.568-.108 2.503 2.503 0 0 0-.488-.163c-.134-.054-.269-.108-.35-.162a1.004 1.004 0 0 0-.271-.162 2.946 2.946 0 0 0-.297-.162c-.189-.082-.871 1.064-.871 1.064l5.634 8.096.136.163c.135.081.135.081.163.108h.161c.136-.054.244-.081.325-.108l.514-.487h.325v.108l-3.544 3.03c-.026.026-.081.053-.107.08-.055.027-.108.027-.19.027-.081-.08-.162-.108-.189-.108l-5.581-8.205v4.653l.73.866.19.108c.107-.054.189-.081.243-.108l.487-.378h.379l-3.597 3.029-2.137-1.812c-.081-.136-.163-.19-.189-.217l-.297.054-.596.487-.216-.216 1.352-1.11.215-.378V5.954l-.026-.594c0-.109-.054-.271-.161-.488-.028-.163-.136-.297-.326-.379l-.324-.27Zm36.888 6.892 1.433-1.19c.053-.026.108-.08.163-.08.081-.055.135-.055.161-.055.108.054.218.11.352.135l2.001 2.299.109.108.108.109.135-.109.865-.595.189.244-1.054.81v7.603l1.028 1.244c.108.108.163.19.189.19h.163l.865-.542.189.216-3.165 2.597a.426.426 0 0 1-.242.135l-.216-.027-.244-.135-1.758-2.083c-.054-.135-.108-.189-.135-.189l-.163-.027-.216.081-.73.514-.216-.27 1.026-.758v-7.547l-1.433-1.785-.973.676v-.352l1.569-1.217Zm4.138-4.463-2.515 2.084-2.137-2.354 2.515-2.082 2.137 2.352Zm30.998 3.192c.135-.08.243-.108.243-.135.054-.027.082-.027.163-.027l.189.054.108.054c.027.027.08.054.08.11.055.053.244.377.623.945.352.568.704 1.109 1.028 1.677.297.54.514.92.649 1.136.108.216.162.378.162.513l-.054.244c0 .027-.08.108-.216.243a130.605 130.605 0 0 0-2.65 1.704c-.731.46-1.435.947-2.137 1.433a3.305 3.305 0 0 1-.433.38.945.945 0 0 0-.082.432c0 .19.028.325.082.433l.325.405 2.082 1.92.244.054.243-.027 3.056-2.352.216.216-5.517 4.3-.324.19-.189.08h-.218l-.08-.108-.217-.162-3.218-2.812-1.109.946v-.378l1.109-.974v-7.492l5.842-3.002Zm-2.136 7.6c.216-.136.458-.27.729-.433.271-.162.488-.324.676-.433l.946-.595.11-.189v-.243c0-.027-.082-.136-.218-.352l-1.866-3.083-.243-.406-.189-.054-.081.135v5.49l.027.109.109.054Zm7.144-5.455c.426-.201.852-.373 1.308-.575.455-.2.881-.43 1.307-.66.427-.23.882-.487 1.365-.775.484-.316.967-.632 1.479-.949l.511.374c.199.143.399.26.598.401.313.145.568.23.823.23.257 0 .484-.028.683-.114.199-.086.399-.172.541-.288.142-.114.255-.258.341-.43l.198-.345c.029.086.086.2.115.288.027.086.056.2.056.287v.46c0 .229-.029.43-.085.603-.057.172-.17.43-.312.746l-.541.89-.541.69-.34.373c-.029.03-.086.115-.171.23v.259c0 .028.056.115.142.258l1.792 1.58.113.172v4.739l-.113.23-.228.143-2.16 1.12c-.456.23-.967.575-1.508.949-.568.373-.995.631-1.279.804l-.142.086-.171-.058-.227-.23c-.142-.143-.257-.258-.37-.401l-.426-.288c-.172-.086-.37-.115-.598-.115-.34-.057-.568-.028-.654 0a.972.972 0 0 0-.455.23l-.255.373a1.076 1.076 0 0 0-.029.517c.113.172.199.316.255.403l.314.344.199.172.17.115-.455-.058c-.086 0-.228-.085-.426-.2l-.569-.345-.426-.373-.313-.603a3.775 3.775 0 0 1-.17-.575c-.029-.172-.029-.402-.029-.718 0-.23.029-.43.057-.603.056-.172.142-.373.227-.574.113-.23.199-.402.285-.517.085-.144.198-.288.313-.402l1.763-1.867.056-.144-.056-.143-1.82-1.638-.142-.143v-3.935Zm5.486 4.51c-.14-.116-.255-.23-.397-.346-.142-.143-.228-.2-.313-.23h-.199l-1.109 1.006-2.956 2.93-.086.373c.426-.259.738-.46.995-.603.256-.144.484-.259.654-.288.171-.057.369-.086.597-.086.228 0 .512.058.882.144.369.086.653.172.795.258.171.087.37.259.569.46l.768 1.005.341.46v-4.624l-.541-.46Zm-1.477-1.293c.142.086.255.201.397.287h.171l.228-.086 2.956-2.93.085-.373c-.311.143-.654.316-.965.46a3.152 3.152 0 0 1-.683.085 2.61 2.61 0 0 1-.825-.114c-.255-.087-.455-.144-.597-.23-.142-.086-.256-.172-.341-.23-.086-.086-.199-.172-.313-.287-.113-.115-.256-.259-.399-.46l-.368-.46v3.62l.654.718ZM78.123 6.296l-.27.571c-.06.09-.121.15-.121.21-.06.03-.09.09-.09.18-.06.09-.06.18-.121.27 0 .09-.03.15-.03.21 0 .24.03.45.12.661.091.18.211.39.452.6l.512.45c.15.12.392.3.753.51.332.21.572.36.693.48l.361.36c.12.15.212.301.301.451.091.15.181.39.211.66l.06.45V20.012c.09.12.212.27.362.48.15.18.391.39.723.6.301.21.602.421.873.6h.271c.091-.09.15-.119.241-.149l.15-.18.092-.21V13.11l-.091-.24-.12-.18-.723-.691-.121-.21c0-.03 0-.12.03-.21l.12-.15 2.38-1.95c.09-.03.211-.12.392-.21h.18l.181.12 2.2 1.92c.03.06.12.15.21.3.03.06 0 .15-.03.27l-.272.27c-.27.18-.421.33-.511.42-.09.09-.121.18-.15.24l-.03.18v6.843l.059.33.181.27 2.018 1.711h.512l.12-.09V13.05l-.06-.21-.18-.15-.573-.51c-.09-.12-.12-.21-.12-.24 0-.09.03-.15.06-.21l.12-.12 2.62-2.34.242.03.24.15 2.35 1.89.271-.06.211-.15.753-.57.211.18-2.109 1.77c-.09.06-.18.12-.27.21-.091.06-.151.15-.181.24v7.054c-.09.27-.15.42-.21.51-.061.06-.151.12-.242.15a.5.5 0 0 0-.18.09l-5.573 3.331c-.09.06-.15.09-.211.09-.03.06-.12.06-.21.06l-.242-.09-.24-.18-2.41-1.95a.704.704 0 0 1-.211-.211.345.345 0 0 0-.24-.09c-.091 0-.182.06-.302.15-.09.09-.271.21-.512.36-.21.12-.573.36-1.024.72-.452.36-.874.69-1.235 1.02-.06.031-.181.061-.332.121a.897.897 0 0 0-.24-.12l-.241-.21-2.109-1.771-.301-.12-.21-.06-.182.09-.903.57-.211-.24 1.205-.81.12-.24V13.98c0-.06-.03-.18-.06-.36s-.15-.39-.362-.63c-.21-.24-.36-.451-.511-.6-.12-.151-.302-.36-.543-.571-.24-.18-.421-.39-.511-.54-.09-.15-.181-.271-.272-.42-.09-.12-.15-.27-.18-.42-.03-.152-.061-.451-.061-.9 0-.452.06-.811.15-1.051.091-.211.212-.39.332-.54.12-.12.271-.27.452-.482.15-.18.301-.33.452-.42.12-.089.36-.24.692-.42.332-.18.753-.3 1.205-.33Zm98.15 14.204c-.118.091-.242.18-.374.261l.374-.24v-.02Zm-10.214-7.977a6.388 6.388 0 0 0-.062.875c0 .469.031.844.031 1.155 0 .47.031.844.094 1.188.094.343.187.75.281 1.155.125.406.343.875.656 1.406l.5.812c.843-.468 1.311-.718 1.343-.75l.03-8.215-2.436 1.062c-.124.22-.219.375-.249.531-.063.157-.125.438-.188.781Zm9.528-5.06c-.157 0-.313-.032-.531-.063a8.732 8.732 0 0 0-.844-.186 59.785 59.785 0 0 1-.999-.19c-.313-.092-.718-.186-1.25-.342l-2.468-.75c-.563-.157-.905-.312-1.124-.343a5.026 5.026 0 0 0-.656-.156c-.219-.032-.469-.094-.688-.125-.218-.032-.406-.063-.531-.063-.093 0-.219.031-.374.063a1.73 1.73 0 0 0-.5.218c-.157.125-.282.218-.376.312l-.28.281c-.094.125-.156.25-.187.375-.032.126 0 .344.031.657l.125.405.094.25.125.282-.719-.281a1.125 1.125 0 0 1-.344-.313c-.094-.094-.187-.313-.343-.593-.282-.438-.407-.937-.407-1.5 0-.344.032-.625.063-.843.031-.219.156-.563.344-1.032.186-.467.468-.843.843-1.124.406-.312.687-.5.874-.593.188-.094.407-.188.687-.25.531-.188 1.063-.344 1.625-.344.406 0 .813.062 1.218.156.406.094.719.188.938.22.249.062.468.124.687.156.219.062.718.248 1.437.53.187.031.53.156 1.03.313.501.156.969.281 1.406.375l.843.28c.407.125.72.188.937.188.282-.032.532-.093.719-.157.188-.092.344-.217.501-.405.186-.344.281-.532.281-.594 0-.157-.031-.282-.064-.374a1.42 1.42 0 0 1-.155-.313l-.594-.531c-.187-.094-.375-.188-.593-.218-.189-.094-.375-.156-.563-.25h.75c.219 0 .5.031.874.094.406.062.782.248 1.126.53.405.156.686.375.905.657.219.28.344.499.405.655.096.156.157.375.189.625s.063.437.063.53c0 .126 0 .25-.063.407 0 .157-.063.437-.156.812-.094.407-.281.782-.563 1.187a2.95 2.95 0 0 1-.905.874 4.317 4.317 0 0 1-1.064.407l-.904.094h-.563c.157.592.25 1.25.28 2.03.033.781.064 1.468.094 2.124l-.217-.187 2.092 1.874-2.061 1.843.186-.125V20.5c.11-.084.214-.17.313-.26.344-.313.625-.563.843-.782.219-.218.469-.5.75-.875.282-.406.563-.75.781-1.062l.625-.874-.031.655v.532c0 .25-.031.437-.031.593-.063.156-.063.313-.125.469 0 .187-.063.375-.157.593a2.78 2.78 0 0 0-.187.531 5.858 5.858 0 0 1-.312.656c-.156.313-.406.687-.688 1.125a6.922 6.922 0 0 1-.874 1.093c-.281.281-.655.563-1.062.844-.438.28-.813.469-1.093.625a8.013 8.013 0 0 1-1.032.437c-.374.125-.687.218-.937.281a3.93 3.93 0 0 1-.937.094c-.187.03-.375.062-.594.062h-.468a7.53 7.53 0 0 1-1.25-.125 6.98 6.98 0 0 1-1.843-.593c-.655-.312-1.187-.594-1.592-.875-.407-.281-.75-.531-1.001-.75a8.131 8.131 0 0 1-.843-.906c-.312-.375-.563-.687-.718-.937a9.157 9.157 0 0 1-.531-1c-.188-.406-.344-.811-.407-1.186-.094-.375-.217-.844-.312-1.375l-.062-1.718.094-1.593c.093-.656.28-1.25.499-1.78.25-.532.469-.969.688-1.25.218-.282.405-.562.562-.75.406-.5.843-.938 1.249-1.28.407-.344.751-.626.968-.782.251-.186.563-.374.938-.593.374-.219.656-.406.875-.5.219-.125.469-.187.812-.25l.624-.093-.593.468c-.405.312-.718.656-1.031.938a4.577 4.577 0 0 0-.812.968c-.219.343-.375.718-.531 1.124l6.279-2.499v8.809l-5.311 2.687.219.25.438.406c.281.25.5.437.656.53.187.094.405.22.624.344.218.125.499.25.843.344.344.093.688.187 1.094.25.406.062.781.093 1.124.093.156 0 .5-.03 1.001-.062a6.112 6.112 0 0 0 1.561-.5 4.76 4.76 0 0 0 .531-.29V15.022l.188.125-2.188-1.843 2-1.738V7.463h-.312Z" fill="#224722"></path></svg>
